<svg xmlns="http://www.w3.org/2000/svg" id="Meeting-pana" width="668.431" height="673.662" viewBox="0 0 668.431 673.662"><g id="background-complete--inject-132" transform="translate(1.185 0)"><ellipse id="Ellipse_757" data-name="Ellipse 757" cx="45.728" cy="45.728" rx="45.728" ry="45.728" transform="matrix(0.909, -0.418, 0.418, 0.909, 545.947, 128.745)" fill="#e0e0e0"></ellipse><path id="Path_8611" data-name="Path 8611" d="M450.913,135.119a5.928,5.928,0,0,1-1.611.152l-4.453.122c-3.769,0-9.012.106-14.954.122h-.4V132.2c0-6.626,0-12.614.122-16.96,0-2.036.091-3.769.122-5.137a9.4,9.4,0,0,1,.152-1.884,8.161,8.161,0,0,1,.152,1.884c0,1.368.076,3.039.137,5.137,0,4.346.106,10.334.106,16.96v3.039l-.4-.38c5.942,0,11.185,0,14.954.122l4.453.122A7.6,7.6,0,0,1,450.913,135.119Z" transform="translate(176.444 17.461)" fill="#fafafa"></path><path id="Path_8612" data-name="Path 8612" d="M430,99.85a9.481,9.481,0,0,1,.4,3.845,9.422,9.422,0,0,1-.4,3.83,9.755,9.755,0,0,1-.4-3.83A9.8,9.8,0,0,1,430,99.85Z" transform="translate(176.475 13.111)" fill="#fafafa"></path><path id="Path_8613" data-name="Path 8613" d="M445.41,103.915c.152.152-.927,1.52-2.4,2.948s-2.812,2.553-2.964,2.4.927-1.52,2.4-2.948S445.242,103.763,445.41,103.915Z" transform="translate(181.917 15.216)" fill="#fafafa"></path><path id="Path_8614" data-name="Path 8614" d="M453.771,112.67c.106.2-1.322,1.109-3.039,2.188a11.322,11.322,0,0,1-3.359,1.732c-.137-.167,1.14-1.322,2.948-2.416A8.054,8.054,0,0,1,453.771,112.67Z" transform="translate(185.728 19.774)" fill="#fafafa"></path><path id="Path_8615" data-name="Path 8615" d="M459.861,125.795a34.953,34.953,0,0,1-10.471,0,34.954,34.954,0,0,1,10.471,0Z" transform="translate(186.781 26.39)" fill="#fafafa"></path><path id="Path_8616" data-name="Path 8616" d="M411.863,125.335a31.169,31.169,0,0,1-9.893,0A31.169,31.169,0,0,1,411.863,125.335Z" transform="translate(162.136 26.151)" fill="#fafafa"></path><path id="Path_8617" data-name="Path 8617" d="M414.542,134.88a15.745,15.745,0,0,1-3.663,3.465,16.9,16.9,0,0,1-4.179,2.8,16.08,16.08,0,0,1,3.678-3.465A16.381,16.381,0,0,1,414.542,134.88Z" transform="translate(164.594 31.317)" fill="#fafafa"></path><path id="Path_8618" data-name="Path 8618" d="M421.993,142.36a22.284,22.284,0,0,1-2.447,4.468,22.1,22.1,0,0,1-2.8,4.255,13.842,13.842,0,0,1,2.112-4.666,13.678,13.678,0,0,1,3.131-4.058Z" transform="translate(169.817 35.204)" fill="#fafafa"></path><path id="Path_8619" data-name="Path 8619" d="M430,155.581a17.855,17.855,0,0,1-.4-5.228,17.92,17.92,0,0,1,.4-5.243,17.326,17.326,0,0,1,.4,5.243,17.266,17.266,0,0,1-.4,5.228Z" transform="translate(176.475 36.634)" fill="#fafafa"></path><path id="Path_8620" data-name="Path 8620" d="M447.392,149.759a19.665,19.665,0,0,1-7.842-6.839,29.24,29.24,0,0,1,3.982,3.359A29.867,29.867,0,0,1,447.392,149.759Z" transform="translate(181.667 35.495)" fill="#fafafa"></path><path id="Path_8621" data-name="Path 8621" d="M453.94,142.16a13.678,13.678,0,0,1-3.541-3.039,13.162,13.162,0,0,1-3.039-3.541,27.66,27.66,0,0,1,6.52,6.52Z" transform="translate(185.726 31.681)" fill="#fafafa"></path><path id="Path_8622" data-name="Path 8622" d="M413.509,117.881c-.152.167-1.52-.988-3.131-2.568s-2.735-3.039-2.583-3.131a12.972,12.972,0,0,1,3.131,2.568C412.536,116.315,413.661,117.729,413.509,117.881Z" transform="translate(165.156 19.517)" fill="#fafafa"></path><path id="Path_8623" data-name="Path 8623" d="M422.057,108.77c-.152.152-1.52-.973-3.039-2.508s-2.675-2.918-2.523-3.039,1.52.973,3.039,2.508S422.209,108.618,422.057,108.77Z" transform="translate(169.678 14.859)" fill="#fafafa"></path><rect id="Rectangle_1101" data-name="Rectangle 1101" width="181.728" height="326.467" transform="translate(13.13 8.906)" fill="#ebebeb"></rect><rect id="Rectangle_1102" data-name="Rectangle 1102" width="165.331" height="307.273" transform="translate(20.395 18.373)" fill="#fafafa"></rect><path id="Path_8624" data-name="Path 8624" d="M209.546,41.227,44.2,251.541V37.61H209.546Z" transform="translate(-23.805 -19.237)" fill="#f5f5f5"></path><rect id="Rectangle_1103" data-name="Rectangle 1103" width="168.917" height="3.267" transform="translate(20.395 106.76)" fill="#ebebeb"></rect><rect id="Rectangle_1104" data-name="Rectangle 1104" width="168.917" height="3.267" transform="translate(20.395 179.935)" fill="#ebebeb"></rect><rect id="Rectangle_1105" data-name="Rectangle 1105" width="168.917" height="3.267" transform="translate(20.395 253.11)" fill="#ebebeb"></rect><rect id="Rectangle_1106" data-name="Rectangle 1106" width="225.952" height="8.358" transform="translate(98.888 334.354) rotate(-90)" fill="#ebebeb"></rect><rect id="Rectangle_1107" data-name="Rectangle 1107" width="3.784" height="90.028" transform="translate(52.233 18.373)" fill="#ebebeb"></rect><rect id="Rectangle_1108" data-name="Rectangle 1108" width="3.784" height="90.028" transform="translate(84.877 18.373)" fill="#ebebeb"></rect><rect id="Rectangle_1109" data-name="Rectangle 1109" width="3.784" height="90.028" transform="translate(117.505 18.373)" fill="#ebebeb"></rect><rect id="Rectangle_1110" data-name="Rectangle 1110" width="3.784" height="90.028" transform="translate(150.149 18.373)" fill="#ebebeb"></rect><rect id="Rectangle_1111" data-name="Rectangle 1111" width="7.69" height="334.02" transform="translate(5.456 3.374)" fill="#f5f5f5"></rect><path id="Path_8625" data-name="Path 8625" d="M166.69,362.672,159,359.738v-332h7.69Z" transform="translate(35.859 -24.366)" fill="#e0e0e0"></path><rect id="Rectangle_1112" data-name="Rectangle 1112" width="197.108" height="8.906" transform="translate(5.456)" fill="#e0e0e0"></rect><rect id="Rectangle_1113" data-name="Rectangle 1113" width="207.761" height="8.298" transform="translate(0 339.415)" fill="#e0e0e0"></rect><path id="Path_8626" data-name="Path 8626" d="M225.639,246.2l12.9,4.042H30.78L43.91,246.2Z" transform="translate(-30.78 89.172)" fill="#ebebeb"></path></g><g id="Floor--inject-132" transform="translate(6.656 666.14)"><path id="Path_8627" data-name="Path 8627" d="M689.745,464.245c0,.213-146.729.4-327.667.4s-327.7-.182-327.7-.4,146.684-.4,327.7-.4S689.745,464.078,689.745,464.245Z" transform="translate(-34.38 -463.85)" fill="#263238"></path></g><g id="Graphics--inject-132" transform="translate(226.165 74.694)"><rect id="Rectangle_1114" data-name="Rectangle 1114" width="287.076" height="262.942" transform="translate(6.641 15.82)" fill="#fafafa"></rect><path id="Path_8628" data-name="Path 8628" d="M471.285,349.032H182.69V84.6h288.6Zm-287.076-1.52H469.766V86.12H184.21Z" transform="translate(-176.809 -69.509)" fill="#263238"></path><rect id="Rectangle_1115" data-name="Rectangle 1115" width="298.914" height="16.763" fill="#263238"></rect><path id="Path_8629" data-name="Path 8629" d="M183.62,85.7,469.4,113.754,469.252,85.7Z" transform="translate(-176.325 -68.937)" fill="#e0e0e0"></path><rect id="Rectangle_1116" data-name="Rectangle 1116" width="9.635" height="107.581" transform="translate(51.291 104.466)" fill="#2274e5"></rect><rect id="Rectangle_1117" data-name="Rectangle 1117" width="9.635" height="71.047" transform="translate(69.892 141)" fill="#2274e5"></rect><rect id="Rectangle_1118" data-name="Rectangle 1118" width="9.635" height="94.755" transform="translate(88.493 117.839)" fill="#2274e5"></rect><rect id="Rectangle_1119" data-name="Rectangle 1119" width="9.635" height="103.417" transform="translate(107.08 108.615)" fill="#2274e5"></rect><rect id="Rectangle_1120" data-name="Rectangle 1120" width="9.635" height="68.859" transform="translate(125.681 143.188)" fill="#2274e5"></rect><rect id="Rectangle_1121" data-name="Rectangle 1121" width="9.635" height="55.348" transform="translate(144.282 156.699)" fill="#2274e5"></rect><rect id="Rectangle_1122" data-name="Rectangle 1122" width="9.635" height="96.533" transform="translate(162.869 115.514)" fill="#2274e5"></rect><rect id="Rectangle_1123" data-name="Rectangle 1123" width="9.635" height="79.132" transform="translate(181.47 132.915)" fill="#2274e5"></rect><rect id="Rectangle_1124" data-name="Rectangle 1124" width="9.635" height="93.037" transform="translate(200.071 119.009)" fill="#2274e5"></rect><rect id="Rectangle_1125" data-name="Rectangle 1125" width="9.635" height="63.388" transform="translate(218.658 148.659)" fill="#2274e5"></rect><rect id="Rectangle_1126" data-name="Rectangle 1126" width="9.635" height="75.454" transform="translate(237.259 136.593)" fill="#2274e5"></rect><path id="Path_8630" data-name="Path 8630" d="M400.377,160a2.569,2.569,0,0,1-.623-.106l-1.808-.365a27.435,27.435,0,0,0-2.948-.471,36.123,36.123,0,0,0-4.043-.334,46.611,46.611,0,0,0-11.079.957,48.874,48.874,0,0,0-13.678,5.2,56.23,56.23,0,0,0-13.905,11.079,104.6,104.6,0,0,0-11.732,16.778c-3.784,6.17-7.6,12.887-13.176,18.617a34.436,34.436,0,0,1-9.711,7.264,20.76,20.76,0,0,1-5.988,1.839,19.316,19.316,0,0,1-6.337-.228,25.623,25.623,0,0,1-11.048-5.79,51.472,51.472,0,0,1-8.191-8.921c-4.742-6.4-8.115-13.3-11.732-19.574a81.122,81.122,0,0,0-11.717-16.717,31.429,31.429,0,0,0-7.249-5.7,29.972,29.972,0,0,0-3.921-1.9,30.617,30.617,0,0,0-4-1.185,28.874,28.874,0,0,0-14.513.41,32.582,32.582,0,0,0-9.969,4.787,36.979,36.979,0,0,0-5.243,4.7l-1.216,1.368c-.274.319-.426.471-.441.456a2.935,2.935,0,0,1,.38-.5l1.17-1.429a33.433,33.433,0,0,1,5.167-4.833,32.461,32.461,0,0,1,10.03-4.97,29.27,29.27,0,0,1,14.772-.532,30.5,30.5,0,0,1,15.5,8.875,80.954,80.954,0,0,1,11.884,16.884c3.632,6.276,7.021,13.146,11.717,19.452a50.714,50.714,0,0,0,8.07,8.8,25.4,25.4,0,0,0,10.638,5.623,18.449,18.449,0,0,0,11.839-1.52,33.875,33.875,0,0,0,9.483-7.082c5.486-5.638,9.316-12.295,13.1-18.465a105.541,105.541,0,0,1,11.869-16.884,56.335,56.335,0,0,1,14.133-11.124,48.8,48.8,0,0,1,13.905-5.152,45.925,45.925,0,0,1,11.185-.821,35.335,35.335,0,0,1,4.073.41,25.1,25.1,0,0,1,2.933.547l1.793.441a3.965,3.965,0,0,1,.623.122Z" transform="translate(-159.44 -31.141)" fill="#263238"></path><path id="Path_8631" data-name="Path 8631" d="M205.74,265.993c-.228,0-.41-30.683-.41-68.509s.182-68.524.41-68.524.4,30.683.4,68.524S205.953,265.993,205.74,265.993Z" transform="translate(-165.042 -46.454)" fill="#263238"></path><path id="Path_8632" data-name="Path 8632" d="M413.669,219.265c0,.213-45.7.4-102.049.4s-102.049-.182-102.049-.4,45.683-.4,102.049-.4S413.669,219.068,413.669,219.265Z" transform="translate(-162.839 0.274)" fill="#263238"></path><path id="Path_8633" data-name="Path 8633" d="M226.5,224.851a32.977,32.977,0,0,1-7.143.4,32.977,32.977,0,0,1-7.143-.4,32.983,32.983,0,0,1,7.143-.4,32.979,32.979,0,0,1,7.143.4Z" transform="translate(-161.466 3.153)" fill="#263238"></path><path id="Path_8634" data-name="Path 8634" d="M243.051,225.151a45.592,45.592,0,0,1-8.541.4,45.589,45.589,0,0,1-8.51-.4,47.252,47.252,0,0,1,8.556-.4A47.111,47.111,0,0,1,243.051,225.151Z" transform="translate(-154.299 3.309)" fill="#263238"></path><path id="Path_8635" data-name="Path 8635" d="M256.362,225.151a45.407,45.407,0,0,1-8.541.4,45.59,45.59,0,0,1-8.541-.4,47.109,47.109,0,0,1,8.541-.4,47,47,0,0,1,8.541.4Z" transform="translate(-147.398 3.309)" fill="#263238"></path><path id="Path_8636" data-name="Path 8636" d="M269.672,225.151a45.407,45.407,0,0,1-8.541.4,45.59,45.59,0,0,1-8.541-.4,47.109,47.109,0,0,1,8.541-.4A47,47,0,0,1,269.672,225.151Z" transform="translate(-140.48 3.309)" fill="#263238"></path><path id="Path_8637" data-name="Path 8637" d="M282.982,225.151a45.59,45.59,0,0,1-8.541.4,45.407,45.407,0,0,1-8.541-.4,47.013,47.013,0,0,1,8.541-.4A47.111,47.111,0,0,1,282.982,225.151Z" transform="translate(-133.563 3.309)" fill="#263238"></path><path id="Path_8638" data-name="Path 8638" d="M296.292,225.135a45.593,45.593,0,0,1-8.541.4,45.407,45.407,0,0,1-8.541-.4A92.5,92.5,0,0,1,296.292,225.135Z" transform="translate(-126.645 3.325)" fill="#263238"></path><path id="Path_8639" data-name="Path 8639" d="M309.607,225.135a92.7,92.7,0,0,1-17.1,0,92.7,92.7,0,0,1,17.1,0Z" transform="translate(-119.733 3.325)" fill="#263238"></path><path id="Path_8640" data-name="Path 8640" d="M322.917,225.135a92.7,92.7,0,0,1-17.1,0A92.7,92.7,0,0,1,322.917,225.135Z" transform="translate(-112.815 3.325)" fill="#263238"></path><path id="Path_8641" data-name="Path 8641" d="M336.212,225.135a92.506,92.506,0,0,1-17.082,0A92.5,92.5,0,0,1,336.212,225.135Z" transform="translate(-105.898 3.325)" fill="#263238"></path><path id="Path_8642" data-name="Path 8642" d="M349.522,225.135a92.507,92.507,0,0,1-17.082,0,92.507,92.507,0,0,1,17.082,0Z" transform="translate(-98.98 3.325)" fill="#263238"></path><path id="Path_8643" data-name="Path 8643" d="M256.838,177.113c0-.106.866.182,1.14,1.368a2.857,2.857,0,0,1-.213,2.052,1.793,1.793,0,0,1-1.033.866,1.869,1.869,0,0,1-1.428-.167,2.416,2.416,0,0,1-1.231-2.264,2.462,2.462,0,0,1,.988-1.808,1.52,1.52,0,0,1,1.353-.334c.319.091.441.258.41.289a1.594,1.594,0,0,0-1.413.471A2.067,2.067,0,0,0,254.8,179a1.748,1.748,0,0,0,.866,1.52,1.064,1.064,0,0,0,1.52-.365,2.72,2.72,0,0,0,.289-1.52C257.339,177.645,256.777,177.265,256.838,177.113Z" transform="translate(-139.713 -21.6)" fill="#263238"></path><path id="Path_8644" data-name="Path 8644" d="M318,160.087a.859.859,0,0,1,.623,0,2.356,2.356,0,0,1,1.261,1.094,3.039,3.039,0,0,1,.3,2.477,2.6,2.6,0,0,1-2.416,1.93,2.082,2.082,0,0,1-1.52-.805,3.328,3.328,0,0,1-.654-1.368,3.207,3.207,0,0,1,.4-2.462c.866-1.231,1.945-1.17,1.915-1.079a3.348,3.348,0,0,0-1.429,1.353,2.766,2.766,0,0,0-.228,1.9c.2.729.76,1.52,1.52,1.52a1.961,1.961,0,0,0,1.7-1.368,2.751,2.751,0,0,0-.122-1.991A2.645,2.645,0,0,0,318,160.087Z" transform="translate(-107.779 -30.41)" fill="#263238"></path><path id="Path_8645" data-name="Path 8645" d="M318.285,127.28c-.228,0-.4-.517-.4-1.14s.167-1.14.4-1.14.4.5.4,1.14S318.5,127.28,318.285,127.28Z" transform="translate(-106.542 -48.512)" fill="#263238"></path><path id="Path_8646" data-name="Path 8646" d="M318.285,134.79c-.228,0-.4-1.125-.4-2.492s.167-2.508.4-2.508.4,1.125.4,2.508S318.5,134.79,318.285,134.79Z" transform="translate(-106.542 -46.023)" fill="#263238"></path><path id="Path_8647" data-name="Path 8647" d="M318.285,141.37c-.228,0-.4-1.109-.4-2.492s.167-2.508.4-2.508.4,1.125.4,2.508S318.5,141.37,318.285,141.37Z" transform="translate(-106.542 -42.603)" fill="#263238"></path><path id="Path_8648" data-name="Path 8648" d="M318.285,147.96c-.228,0-.4-1.125-.4-2.508s.167-2.492.4-2.492.4,1.109.4,2.492S318.5,147.96,318.285,147.96Z" transform="translate(-106.542 -39.178)" fill="#263238"></path><path id="Path_8649" data-name="Path 8649" d="M318.285,154.54c-.228,0-.4-1.125-.4-2.492s.167-2.508.4-2.508.4,1.125.4,2.508S318.5,154.54,318.285,154.54Z" transform="translate(-106.542 -35.758)" fill="#263238"></path><path id="Path_8650" data-name="Path 8650" d="M318.285,158.4c-.228,0-.4-.5-.4-1.14s.167-1.14.4-1.14.4.517.4,1.14S318.5,158.4,318.285,158.4Z" transform="translate(-106.542 -32.339)" fill="#263238"></path><path id="Path_8651" data-name="Path 8651" d="M387.376,113.965c0,.228-15.79.4-35.288.4s-35.288-.167-35.288-.4,15.79-.4,35.288-.4S387.376,113.752,387.376,113.965Z" transform="translate(-107.109 -54.453)" fill="#263238"></path><path id="Path_8652" data-name="Path 8652" d="M362.909,107.465c0,.213-10.167.4-22.7.4s-22.7-.182-22.7-.4,10.167-.4,22.7-.4S362.909,107.252,362.909,107.465Z" transform="translate(-106.745 -57.831)" fill="#263238"></path><g id="Group_1434" data-name="Group 1434" transform="translate(51.291 104.466)" opacity="0.3"><rect id="Rectangle_1127" data-name="Rectangle 1127" width="9.635" height="107.581" fill="#fff"></rect></g><g id="Group_1435" data-name="Group 1435" transform="translate(69.892 141)" opacity="0.3"><rect id="Rectangle_1128" data-name="Rectangle 1128" width="9.635" height="71.047" fill="#fff"></rect></g><g id="Group_1436" data-name="Group 1436" transform="translate(88.493 117.839)" opacity="0.3"><rect id="Rectangle_1129" data-name="Rectangle 1129" width="9.635" height="94.755" fill="#fff"></rect></g><g id="Group_1437" data-name="Group 1437" transform="translate(107.08 108.615)" opacity="0.3"><rect id="Rectangle_1130" data-name="Rectangle 1130" width="9.635" height="103.417" fill="#fff"></rect></g><g id="Group_1438" data-name="Group 1438" transform="translate(125.681 143.188)" opacity="0.3"><rect id="Rectangle_1131" data-name="Rectangle 1131" width="9.635" height="68.859" fill="#fff"></rect></g><g id="Group_1439" data-name="Group 1439" transform="translate(144.282 156.699)" opacity="0.3"><rect id="Rectangle_1132" data-name="Rectangle 1132" width="9.635" height="55.348" fill="#fff"></rect></g><g id="Group_1440" data-name="Group 1440" transform="translate(162.869 115.514)" opacity="0.3"><rect id="Rectangle_1133" data-name="Rectangle 1133" width="9.635" height="96.533" fill="#fff"></rect></g><g id="Group_1441" data-name="Group 1441" transform="translate(181.47 132.915)" opacity="0.3"><rect id="Rectangle_1134" data-name="Rectangle 1134" width="9.635" height="79.132" fill="#fff"></rect></g><g id="Group_1442" data-name="Group 1442" transform="translate(200.071 119.009)" opacity="0.3"><rect id="Rectangle_1135" data-name="Rectangle 1135" width="9.635" height="93.037" fill="#fff"></rect></g><g id="Group_1443" data-name="Group 1443" transform="translate(218.658 148.659)" opacity="0.3"><rect id="Rectangle_1136" data-name="Rectangle 1136" width="9.635" height="63.388" fill="#fff"></rect></g><g id="Group_1444" data-name="Group 1444" transform="translate(237.259 136.593)" opacity="0.3"><rect id="Rectangle_1137" data-name="Rectangle 1137" width="9.635" height="75.454" fill="#fff"></rect></g></g><g id="character-3--inject-132" transform="translate(415.877 259.534)"><rect id="Rectangle_1138" data-name="Rectangle 1138" width="10.516" height="126" transform="translate(175.203 387.549) rotate(180)" fill="#455a64"></rect><path id="Path_8653" data-name="Path 8653" d="M366.52,377.732H516.973a16.322,16.322,0,0,0-16.322-16.322H382.842a16.322,16.322,0,0,0-16.322,16.322Z" transform="translate(-270.98 -110.485)" fill="#455a64"></path><path id="Path_8654" data-name="Path 8654" d="M408.76,372.505a112.167,112.167,0,0,0,18.449,0,107.9,107.9,0,0,0-18.449,0Z" transform="translate(-249.027 -104.924)" fill="#263238"></path><path id="Path_8655" data-name="Path 8655" d="M385.21,474.635h1.52a44.752,44.752,0,1,1,89.5,0h1.512a46.241,46.241,0,1,0-92.483,0Z" transform="translate(-261.267 -75.674)" fill="#455a64"></path><path id="Path_8656" data-name="Path 8656" d="M441,462.7a6.93,6.93,0,1,0,6.93-6.93A6.93,6.93,0,0,0,441,462.7Z" transform="translate(-232.271 -61.444)" fill="#263238"></path><path id="Path_8657" data-name="Path 8657" d="M380.91,462.085a6.93,6.93,0,1,0,2.024-4.91,6.93,6.93,0,0,0-2.024,4.91Z" transform="translate(-263.502 -61.771)" fill="#455a64"></path><path id="Path_8658" data-name="Path 8658" d="M385.5,451.44c0,.213,20.121.4,44.938.4s44.938-.182,44.938-.4-20.121-.38-44.938-.38S385.5,451.227,385.5,451.44Z" transform="translate(-261.116 -63.891)" fill="#455a64"></path><path id="Path_8659" data-name="Path 8659" d="M500.363,289.693v92.7a22.036,22.036,0,0,1-22.036,22.036H406.9l9.711-114.785a9.817,9.817,0,0,1,9.817-9.817h64.163a9.817,9.817,0,0,1,9.772,9.863Z" transform="translate(-249.994 -152.883)" fill="#455a64"></path><path id="Path_8660" data-name="Path 8660" d="M451.77,402.286a1.123,1.123,0,0,1,.167-.273l.517-.76c.486-.654,1.155-1.641,1.976-2.948a48.63,48.63,0,0,0,5.289-11.839A47.561,47.561,0,0,0,461.5,377.7a90.46,90.46,0,0,0,.273-10.3V343.686c0-16.793.091-31.99.122-43.084,0-5.456.076-9.893.106-13.054,0-1.52,0-2.675.076-3.541a7.9,7.9,0,0,1,.076-1.246,7.909,7.909,0,0,1,0,1.246c0,.866,0,2.052.076,3.541,0,3.161,0,7.6.106,13.054,0,11.094.076,26.291.122,43.084v23.708a91.059,91.059,0,0,1-.365,10.365,47.978,47.978,0,0,1-7.462,20.683,25.144,25.144,0,0,1-2.1,2.872A5.9,5.9,0,0,1,451.77,402.286Z" transform="translate(-226.674 -151.361)" fill="#263238"></path><path id="Path_8661" data-name="Path 8661" d="M426.16,361.508a14.241,14.241,0,0,1,2.28-.122l6.185-.076h20.44c4,0,7.8,0,11.246.137a35.86,35.86,0,0,1,9.118,1,14.162,14.162,0,0,1,5.517,2.887,8.752,8.752,0,0,1,1.2,1.2,1.87,1.87,0,0,1,.365.471,19.521,19.521,0,0,0-1.748-1.444,15.014,15.014,0,0,0-5.471-2.614,38.918,38.918,0,0,0-9.118-.821l-11.246-.076c-7.979,0-15.2-.137-20.425-.243l-6.185-.167a12.621,12.621,0,0,1-2.158-.137Z" transform="translate(-239.984 -110.536)" fill="#263238"></path><path id="Path_8662" data-name="Path 8662" d="M387.388,221.71c-2.112,6.489-4.24,13.115-4.088,19.939,0,3.146.578,6.535-.973,9.27-1.079,1.915-3.039,3.176-4.483,4.772a14.072,14.072,0,0,0-2.492,15.2,9.467,9.467,0,0,0,3.6,4.286,13.678,13.678,0,0,0,6.292,1.52,105.769,105.769,0,0,0,21.7-.988c3.435-.517,7.143-1.368,9.255-4.118,1.9-2.447,2.036-5.805,1.93-8.906a84.952,84.952,0,0,0-8.526-34" transform="translate(-267.016 -183.09)" fill="#263238"></path><path id="Path_8663" data-name="Path 8663" d="M422.713,218.021a5.365,5.365,0,1,1-.7,9.954c3.48-.608,6.824,2.036,8.45,5.182s1.991,6.763,2.827,10.2,2.325,7.006,5.349,8.845,6.96,1.824,8.814,4.635.243,6.9,1.049,10.3,3.921,5.638,6.672,7.781,5.577,4.97,5.425,8.45a7.918,7.918,0,0,1-4.757,6.413,20.669,20.669,0,0,1-8.161,1.52,120.056,120.056,0,0,1-40.8-5.258,11.094,11.094,0,0,1-5.638-3.131c-2.1-2.584-1.6-6.337-1-9.6a217.522,217.522,0,0,1,7.249-30.8c3.4-9.984,8.343-19.6,15.653-27.233" transform="translate(-253.725 -186.437)" fill="#263238"></path><path id="Path_8664" data-name="Path 8664" d="M478.818,301.673h16.231l-5.76-28.951c-4.255-23.677-37.461-25.3-37.461-25.3l-26.063-.35s-19.316-2.6-31.23,10.836c-2.447,2.766-5.015,5.623-7.6,8.434l-28.267,29.574-3.039-37.1-24.209,3.8,3.374,46.579a19.1,19.1,0,0,0,12.8,16.519c5.243,1.656,10.562.2,15.881-2.447,14.1-7.021,40.531-29.391,42.552-31.109a33.9,33.9,0,0,0-3.647,13.541c0,7.72,7.918,13.5,7.918,13.5l2.553,23.4-8.176,37.917,85.1-3.419a84.7,84.7,0,0,0-12.538-35.8Zm-72.628-9.711a2.312,2.312,0,0,1-.273-.562l.912-.654a10.566,10.566,0,0,0-.638,1.216Z" transform="translate(-289.223 -170.015)" fill="#2274e5"></path><path id="Path_8665" data-name="Path 8665" d="M413.546,333.22a148.92,148.92,0,0,1-13.769,8.358c-6.079,2.872-6.322,2.341-6.55,1.52-.638-2.021,10.41-5.456,7.6-6.079s-12.978,5.745-13.541,3.6c-.745-2.8,10.881-6.17,11.854-6.535s.441-1.748-.41-1.368c-1.231.532-14.194,5.775-14.954,3.039-.426-1.52,2.4-1.945,2.4-1.945s12.538-4.027,12.158-5.319-7.842.821-10.289,1.717-3.86.091-3.389-1.292c.319-.942,7.766-3.845,10.213-4.681s9.209-3.039,4.954-4.559-6.945-4.438-7.143-5.684,1.52-1.945,2.492-.942a16.975,16.975,0,0,0,3.921,2.4,10.728,10.728,0,0,0,3.526,1.049c1.064.137,2.006.213,2.857.274l9.042.669,4.559,11.975Z" transform="translate(-262.035 -135.865)" fill="#ffbe9d"></path><path id="Path_8666" data-name="Path 8666" d="M445.469,254.365a31.914,31.914,0,0,1,10.714,16.018c2.006,6.58,7.766,28.875,12.006,45.379a21.276,21.276,0,0,1-13.905,25.425L406.4,367.022l-7.827-20.243,42.02-27.553-10.152-37.613c-1.672-5.729-2.386-11.55-.3-17.127S436.639,253.3,445.469,254.365Z" transform="translate(-254.323 -166.186)" fill="#2274e5"></path><path id="Path_8667" data-name="Path 8667" d="M333.608,269.856l-2.9-9.3c-1.353-6.656,3.906-7.735,4.787-8.723a13.875,13.875,0,0,1,4.7-3.784l-.425-2.69a62.627,62.627,0,0,1-1.52-8.723c0-1.611,2.933-1.717,3.343-.167.942,3.511,2.6,9.468,3.48,11.671,1.17,2.887,3.754,10.44,6.474,5.76s2.432-7.447,2.9-8.906,3.906-1.824,3.237,1.368c-.273,1.337-.441,3.693-1.277,6.9-.38,1.429-1.17,3.176-1.52,4.559-.471,1.656-.669,7.827-.927,9.118Z" transform="translate(-289.709 -175.994)" fill="#ffbe9d"></path><path id="Path_8668" data-name="Path 8668" d="M334.789,247.38a22.73,22.73,0,0,1,.729,2.751,19.965,19.965,0,0,0,1.064,2.842,5.547,5.547,0,0,1,.593,1.854,1.945,1.945,0,0,1-1.094,2.006,2.34,2.34,0,0,1-2.2-.441,5.135,5.135,0,0,1-1.337-1.429,8.281,8.281,0,0,1-1.155-3.039,7.356,7.356,0,0,1-.182-2.872,17.385,17.385,0,0,1,.729,2.751,8.508,8.508,0,0,0,1.216,2.69,4.678,4.678,0,0,0,1.17,1.216,1.7,1.7,0,0,0,1.52.334,1.2,1.2,0,0,0,.608-1.231,5.437,5.437,0,0,0-.486-1.611,15.608,15.608,0,0,1-.942-3.039A6.7,6.7,0,0,1,334.789,247.38Z" transform="translate(-289.37 -169.748)" fill="#eb996e"></path><path id="Path_8669" data-name="Path 8669" d="M337.75,245.35a18.237,18.237,0,0,1,1.383,3.526c.4,1.2.821,2.508,1.292,3.906.213.745.5,1.52.7,2.356a2.675,2.675,0,0,1,0,1.52,2.234,2.234,0,0,1-1.049,1.185,2.781,2.781,0,0,1-2.857-.152,4.559,4.559,0,0,1-1.687-1.976,29.742,29.742,0,0,1-1.231-3.966,17.69,17.69,0,0,1-.821-3.708,18.342,18.342,0,0,1,1.353,3.541c.41,1.094.729,2.492,1.353,3.8a4.1,4.1,0,0,0,1.444,1.657,2.021,2.021,0,0,0,2.067.106,1.52,1.52,0,0,0,.729-1.808c-.152-.745-.441-1.52-.638-2.28l-1.14-3.951a18.049,18.049,0,0,1-.9-3.754Z" transform="translate(-288.152 -170.803)" fill="#eb996e"></path><path id="Path_8670" data-name="Path 8670" d="M347,287.8a15.105,15.105,0,0,1,1.52-4.559,14.894,14.894,0,0,1,2.234-4.27,15.1,15.1,0,0,1-1.52,4.559A14.894,14.894,0,0,1,347,287.8Z" transform="translate(-281.125 -153.33)" fill="#263238"></path><path id="Path_8671" data-name="Path 8671" d="M378.907,287.1a26.142,26.142,0,0,1-4.27-1l-4.559-1.292a25.731,25.731,0,0,1-5.456-2.188,12.066,12.066,0,0,1-4.346-4.058,8.708,8.708,0,0,1-1.292-4.666,29.261,29.261,0,0,0-.106-3.176,7.592,7.592,0,0,1-.167-1.155,3.258,3.258,0,0,1,.471,1.094,16.849,16.849,0,0,1,.365,3.207,8.375,8.375,0,0,0,1.337,4.316,11.974,11.974,0,0,0,4.134,3.754,29.439,29.439,0,0,0,5.273,2.188l4.559,1.444A24.312,24.312,0,0,1,378.907,287.1Z" transform="translate(-275.039 -158.221)" fill="#e0e0e0"></path><path id="Path_8672" data-name="Path 8672" d="M422.956,326.384c-.137,0,0-1.368-.38-3.48a21.275,21.275,0,0,0-3.359-7.6c-.912-1.383-1.854-2.629-2.735-3.784a22.285,22.285,0,0,0-2.4-2.888,3.632,3.632,0,0,0-2.188-.973c-.578,0-.9.091-.912,0s.258-.289.912-.35a3.739,3.739,0,0,1,2.538.851,19.1,19.1,0,0,1,2.629,2.887c.912,1.125,1.884,2.386,2.827,3.784a19.241,19.241,0,0,1,3.237,7.963A7.234,7.234,0,0,1,422.956,326.384Z" transform="translate(-247.874 -138.603)" fill="#e0e0e0"></path><path id="Path_8673" data-name="Path 8673" d="M471.887,268.863a6.364,6.364,0,0,1-1.185-.334l-3.343-1.064a40.743,40.743,0,0,0-12.583-2.2,19.938,19.938,0,0,0-8.48,1.991,40.88,40.88,0,0,0-8.374,5.7A96.272,96.272,0,0,1,429.046,280a23.526,23.526,0,0,1-11.489,4.149,13.359,13.359,0,0,1-6.17-1.231,15.973,15.973,0,0,1-4.878-3.647c-2.72-2.918-4.65-6.216-6.839-9.042a26.123,26.123,0,0,0-15.577-9.985,27.6,27.6,0,0,0-12.69.182c-2.933.79-4.422,1.626-4.453,1.52a18.463,18.463,0,0,1,4.377-1.809,26.763,26.763,0,0,1,12.887-.441,27.357,27.357,0,0,1,8.374,3.207,25.669,25.669,0,0,1,7.6,6.869c2.234,2.872,4.179,6.155,6.824,8.966a13.373,13.373,0,0,0,10.456,4.559,22.8,22.8,0,0,0,11.094-4.012,99.335,99.335,0,0,0,8.845-6.96,41.034,41.034,0,0,1,8.541-5.729,20.517,20.517,0,0,1,8.754-1.96,39.072,39.072,0,0,1,12.69,2.477c1.444.486,2.553.912,3.313,1.2A6.393,6.393,0,0,1,471.887,268.863Z" transform="translate(-270.757 -163.649)" fill="#e0e0e0"></path><path id="Path_8674" data-name="Path 8674" d="M446.288,294.34a16.309,16.309,0,0,0-2.736-.623,15.2,15.2,0,0,0-7.386,1.7,86.965,86.965,0,0,1-10.562,4.559,43.615,43.615,0,0,1-14.012,2.052,42.082,42.082,0,0,1-13.921-2.644,43.039,43.039,0,0,1-10.2-5.441,39.877,39.877,0,0,1-5.851-5.091,19.324,19.324,0,0,1-1.383-1.6,3.271,3.271,0,0,1-.441-.608s.729.729,2.052,1.991a48.318,48.318,0,0,0,5.942,4.909,44.316,44.316,0,0,0,10.137,5.213,41.944,41.944,0,0,0,13.677,2.523,43.54,43.54,0,0,0,13.769-1.93,94.665,94.665,0,0,0,10.562-4.453,15.091,15.091,0,0,1,7.6-1.52A6.322,6.322,0,0,1,446.288,294.34Z" transform="translate(-264.078 -149.339)" fill="#e0e0e0"></path><path id="Path_8675" data-name="Path 8675" d="M451.414,287.491a2.935,2.935,0,0,1-.38,1.155,13.675,13.675,0,0,1-1.687,2.812,15.486,15.486,0,0,1-9.012,5.805,26.383,26.383,0,0,1-10.775-.274,19.331,19.331,0,0,1-4.3-1.155,36.04,36.04,0,0,1,4.392.608,29.329,29.329,0,0,0,10.5,0,15.972,15.972,0,0,0,8.769-5.38A32.48,32.48,0,0,0,451.414,287.491Z" transform="translate(-240.452 -148.903)" fill="#e0e0e0"></path><path id="Path_8676" data-name="Path 8676" d="M429.789,270.12a3.762,3.762,0,0,1,.213.729c.137.532.3,1.246.532,2.143l1.991,8.176c1.748,7.021,4.316,17.051,7.6,29.072v.228l-.2.137-35.41,24.422-5.608,3.86.137-.471c2.8,7.006,5.471,13.677,7.963,20l-.5-.2c14.681-7.249,27.051-13.875,35.759-18.662l10.152-5.623,2.705-1.52a4.874,4.874,0,0,1,.957-.471,8.146,8.146,0,0,1-.9.578l-2.6,1.626c-2.325,1.383-5.729,3.374-10.045,5.821-8.647,4.893-20.987,11.611-35.668,18.921l-.35.182-.152-.38-8.009-19.984-.122-.289.274-.182,5.593-3.845,35.486-24.316-.137.365c-3.161-12.036-5.638-22.1-7.264-29.148-.821-3.541-1.429-6.322-1.824-8.222-.182-.912-.319-1.626-.425-2.173a3.906,3.906,0,0,1-.152-.775Z" transform="translate(-254.495 -157.93)" fill="#263238"></path><path id="Path_8677" data-name="Path 8677" d="M437.145,300.236a37.984,37.984,0,0,0-5.547-2.584,17.112,17.112,0,0,0-4.194-.805c-1.109,0-1.793,0-1.824-.122s.653-.365,1.808-.441a12.324,12.324,0,0,1,4.453.608A9.65,9.65,0,0,1,437.145,300.236Z" transform="translate(-240.286 -144.339)" fill="#263238"></path><path id="Path_8678" data-name="Path 8678" d="M323.012,411.154,329.3,398.1l24.528,11.626-9.012,19.209-1.52-.623c-6.945-2.842-35.106-14.893-38.981-18.419C299.942,405.972,323.012,411.154,323.012,411.154Z" transform="translate(-303.595 -91.416)" fill="#2274e5"></path><g id="Group_1445" data-name="Group 1445" transform="translate(32.441 329.112)" opacity="0.5"><path id="Path_8679" data-name="Path 8679" d="M325,416.843a9.513,9.513,0,0,1,5.608-3.739,9.119,9.119,0,0,1,6.58.927l-3.237,6.869Z" transform="translate(-325 -412.858)" fill="#fff"></path></g><g id="Group_1446" data-name="Group 1446" transform="translate(0 317.046)" opacity="0.4"><path id="Path_8680" data-name="Path 8680" d="M311.627,405.453s-8.3-1.368-7.963.273,28.358,14.893,41.215,19.665l.228-.578-32.811-15.2S313.025,406.182,311.627,405.453Z" transform="translate(-303.654 -404.918)" fill="#fff"></path></g><path id="Path_8681" data-name="Path 8681" d="M345.436,424.845a1.87,1.87,0,0,1-.441-.152l-1.246-.5-4.559-1.915c-3.83-1.641-9.118-4-14.848-6.717s-10.9-5.289-14.6-7.2l-4.377-2.295-1.17-.638-.41-.243a1.518,1.518,0,0,1,.441.182l1.2.593,4.422,2.2c3.723,1.854,8.89,4.392,14.65,7.112s10.988,5.091,14.787,6.793l4.559,2.006,1.216.562Z" transform="translate(-303.588 -87.736)" fill="#263238"></path><path id="Path_8682" data-name="Path 8682" d="M309.412,409.959a10.773,10.773,0,0,0,.167-2.523,11.264,11.264,0,0,0-.7-2.416A4.377,4.377,0,0,1,309.412,409.959Z" transform="translate(-300.937 -87.819)" fill="#263238"></path><path id="Path_8683" data-name="Path 8683" d="M315.282,409.02a5.408,5.408,0,0,1-.334-2.66,2.888,2.888,0,0,1,.334,1.307A2.841,2.841,0,0,1,315.282,409.02Z" transform="translate(-297.826 -87.123)" fill="#263238"></path><path id="Path_8684" data-name="Path 8684" d="M317.079,408.718a4.2,4.2,0,0,1-.593-.988c-.243-.578-.365-1.079-.289-1.109s.35.4.593.988S317.17,408.718,317.079,408.718Z" transform="translate(-297.146 -86.988)" fill="#263238"></path><path id="Path_8685" data-name="Path 8685" d="M319.2,407.323a3.236,3.236,0,0,1-1.353-.456,3.4,3.4,0,0,1-1.231-.73c0-.091.653.106,1.368.441S319.234,407.232,319.2,407.323Z" transform="translate(-296.915 -87.25)" fill="#263238"></path><path id="Path_8686" data-name="Path 8686" d="M320.139,406.4a2.933,2.933,0,0,1-1.626-.273,2.8,2.8,0,0,1-1.383-.881,9.973,9.973,0,0,1,1.52.577,7.245,7.245,0,0,1,1.489.577Z" transform="translate(-296.65 -87.71)" fill="#263238"></path><path id="Path_8687" data-name="Path 8687" d="M316.621,407.791a4.467,4.467,0,0,1-1.52-.745,11.041,11.041,0,0,1-1.52-1.17,5.336,5.336,0,0,1-.775-.851.9.9,0,0,1-.152-.669.684.684,0,0,1,.532-.517,3.176,3.176,0,0,1,3.176,2.538,3.04,3.04,0,0,1,0,1.292c0,.3-.137.456-.152.441a5.333,5.333,0,0,0-.091-1.687,3.237,3.237,0,0,0-.927-1.52,2.7,2.7,0,0,0-1.945-.76c-.334,0-.38.4-.182.7a5.9,5.9,0,0,0,.714.805,11.284,11.284,0,0,0,1.429,1.185C316.043,407.457,316.636,407.746,316.621,407.791Z" transform="translate(-298.982 -88.433)" fill="#263238"></path><path id="Path_8688" data-name="Path 8688" d="M315,407.209a1.7,1.7,0,0,1,.334-1.185,2.811,2.811,0,0,1,.988-.942,1.7,1.7,0,0,1,1.687-.182.684.684,0,0,1,.137.957,1.945,1.945,0,0,1-.593.577,5.451,5.451,0,0,1-1.2.593,2.279,2.279,0,0,1-1.2.213s.441-.137,1.109-.426a5.693,5.693,0,0,0,1.109-.638c.38-.228.805-.76.441-1.018a1.611,1.611,0,0,0-1.353.182,2.919,2.919,0,0,0-.927.821,6.508,6.508,0,0,0-.532,1.048Z" transform="translate(-297.759 -87.957)" fill="#263238"></path><path id="Path_8689" data-name="Path 8689" d="M337.1,414.086a10.642,10.642,0,0,0-1.839-.79,8.815,8.815,0,0,0-4.726-.243,8.661,8.661,0,0,0-4.134,2.325c-.866.866-1.231,1.52-1.292,1.52a1.842,1.842,0,0,1,.243-.486,6.642,6.642,0,0,1,.881-1.2,8.268,8.268,0,0,1,4.225-2.477,8.4,8.4,0,0,1,4.878.334,7.092,7.092,0,0,1,1.337.684C336.888,413.934,337.1,414.071,337.1,414.086Z" transform="translate(-292.502 -83.922)" fill="#263238"></path><path id="Path_8690" data-name="Path 8690" d="M336.05,406a51.225,51.225,0,0,1-2.173,5.137,49.943,49.943,0,0,1-2.477,5A51.257,51.257,0,0,1,333.573,411a43.221,43.221,0,0,1,2.477-5Z" transform="translate(-289.233 -87.31)" fill="#263238"></path><path id="Path_8691" data-name="Path 8691" d="M326.173,414.14a15.641,15.641,0,0,1-3.754-1.337,15.194,15.194,0,0,1-3.45-1.991c0-.076,1.52.775,3.587,1.687A23.049,23.049,0,0,1,326.173,414.14Z" transform="translate(-295.693 -84.812)" fill="#263238"></path><path id="Path_8692" data-name="Path 8692" d="M327.323,414.45c0,.091-.289.273-.623.578s-.578.562-.669.517,0-.441.456-.775S327.307,414.374,327.323,414.45Z" transform="translate(-292.04 -82.934)" fill="#263238"></path><path id="Path_8693" data-name="Path 8693" d="M329.238,413.534c0,.091-.258.274-.623.41s-.714.182-.745.091.258-.274.623-.41S329.208,413.458,329.238,413.534Z" transform="translate(-291.068 -83.416)" fill="#263238"></path><path id="Path_8694" data-name="Path 8694" d="M331.342,413.788c0,.076-.38,0-.79-.122a1.67,1.67,0,0,0-.821,0,1,1,0,0,1,.851-.273C331.1,413.453,331.4,413.727,331.342,413.788Z" transform="translate(-290.102 -83.472)" fill="#263238"></path><path id="Path_8695" data-name="Path 8695" d="M332.456,413.978c0,.091-.213.152-.441.122s-.441-.106-.426-.182.2-.152.441-.137S332.456,413.887,332.456,413.978Z" transform="translate(-289.135 -83.267)" fill="#263238"></path><path id="Path_8696" data-name="Path 8696" d="M370.685,463.9l-.289-14.483,27.127-.729.653,21.185-1.672.152c-7.477.623-37.993,2.614-43.1,1.231C347.767,469.723,370.685,463.9,370.685,463.9Z" transform="translate(-278.26 -65.123)" fill="#2274e5"></path><g id="Group_1447" data-name="Group 1447" transform="translate(110.083 396.779)" opacity="0.5"><path id="Path_8697" data-name="Path 8697" d="M376.09,465.417a9.361,9.361,0,0,1,3.3-5.881,9.118,9.118,0,0,1,6.292-2.143l.213,7.6Z" transform="translate(-376.09 -457.384)" fill="#fff"></path></g><g id="Group_1448" data-name="Group 1448" transform="translate(74.171 402.016)" opacity="0.4"><path id="Path_8698" data-name="Path 8698" d="M359.527,460.83s-8.009,2.553-6.975,3.86,32.021.456,45.592-1.125v-.608l-36.124,1.307S361.108,460.86,359.527,460.83Z" transform="translate(-352.459 -460.83)" fill="#fff"></path></g><path id="Path_8699" data-name="Path 8699" d="M398.542,462.22h-.456l-1.337.106-4.924.35c-4.164.273-9.924.562-16.276.745s-12.158.213-16.291.182l-4.939-.076h-1.337a1.828,1.828,0,0,1-.471,0h6.748c4.164,0,9.924-.106,16.276-.289s12.158-.425,16.276-.638l4.924-.243h1.353A2.068,2.068,0,0,1,398.542,462.22Z" transform="translate(-278.262 -58.091)" fill="#263238"></path><path id="Path_8700" data-name="Path 8700" d="M359.7,464.8a11.38,11.38,0,0,0-.988-2.325,12.25,12.25,0,0,0-1.733-1.854,4.423,4.423,0,0,1,2.72,4.179Z" transform="translate(-275.939 -58.923)" fill="#263238"></path><path id="Path_8701" data-name="Path 8701" d="M364.514,461.31a5.786,5.786,0,0,1-.881-1.018c-.41-.608-.684-1.155-.608-1.2s.471.41.881,1.018A4.628,4.628,0,0,1,364.514,461.31Z" transform="translate(-272.804 -59.719)" fill="#263238"></path><path id="Path_8702" data-name="Path 8702" d="M365.975,460.257a4.471,4.471,0,0,1-.973-.623c-.486-.41-.821-.79-.76-.851s.5.2.973.608S366.036,460.181,365.975,460.257Z" transform="translate(-272.168 -59.882)" fill="#263238"></path><path id="Path_8703" data-name="Path 8703" d="M367.217,458.043a3.253,3.253,0,0,1-1.413.213,3.176,3.176,0,0,1-1.413-.106,5.82,5.82,0,0,1,2.827-.106Z" transform="translate(-272.087 -60.327)" fill="#263238"></path><path id="Path_8704" data-name="Path 8704" d="M367.611,456.84a2.751,2.751,0,0,1-1.52.5,3.04,3.04,0,0,1-1.641-.167,8.461,8.461,0,0,1,1.611-.167A9.119,9.119,0,0,1,367.611,456.84Z" transform="translate(-272.056 -60.887)" fill="#263238"></path><path id="Path_8705" data-name="Path 8705" d="M365.072,459.806a5.2,5.2,0,0,1-1.748,0,9.765,9.765,0,0,1-1.854-.349,4.742,4.742,0,0,1-1.079-.41.942.942,0,0,1-.456-.532.684.684,0,0,1,.258-.7,3.191,3.191,0,0,1,3.966.821,2.843,2.843,0,0,1,.608,1.155,1.094,1.094,0,0,1,0,.471,4.878,4.878,0,0,0-.836-1.52,3.283,3.283,0,0,0-1.52-.927,2.721,2.721,0,0,0-2.067.2c-.274.213-.167.532.152.714a5.576,5.576,0,0,0,.988.4,11.449,11.449,0,0,0,1.808.41A8.253,8.253,0,0,0,365.072,459.806Z" transform="translate(-274.411 -60.571)" fill="#263238"></path><path id="Path_8706" data-name="Path 8706" d="M363.092,460.255a1.687,1.687,0,0,1-.243-1.216,2.917,2.917,0,0,1,.441-1.277,1.808,1.808,0,0,1,1.429-.942.7.7,0,0,1,.562.79,1.945,1.945,0,0,1-.273.79,5.372,5.372,0,0,1-.79,1.079,2.553,2.553,0,0,1-.988.729,11.916,11.916,0,0,0,.805-.881,6.074,6.074,0,0,0,.7-1.064c.228-.38.38-1.049,0-1.109s-.866.41-1.125.775a2.765,2.765,0,0,0-.471,1.14,5.426,5.426,0,0,0-.046,1.185Z" transform="translate(-272.902 -60.898)" fill="#263238"></path><path id="Path_8707" data-name="Path 8707" d="M385.539,457.427s-.79,0-2.006.122a8.739,8.739,0,0,0-4.331,1.93,8.89,8.89,0,0,0-2.629,3.936c-.38,1.17-.4,1.96-.456,1.945a1.933,1.933,0,0,1,0-.547,7.141,7.141,0,0,1,.258-1.52,8.221,8.221,0,0,1,7.143-6.079,6.839,6.839,0,0,1,1.52,0A2.2,2.2,0,0,1,385.539,457.427Z" transform="translate(-266.003 -60.715)" fill="#263238"></path><path id="Path_8708" data-name="Path 8708" d="M380.278,450a50.051,50.051,0,0,1,.4,5.562,48.286,48.286,0,0,1,0,5.593,46.105,46.105,0,0,1-.4-5.577A48.025,48.025,0,0,1,380.278,450Z" transform="translate(-263.872 -64.442)" fill="#263238"></path><path id="Path_8709" data-name="Path 8709" d="M376.5,461.012a15.742,15.742,0,0,1-3.951.5,15.291,15.291,0,0,1-3.966-.213c0-.091,1.778,0,3.951-.122A31.981,31.981,0,0,1,376.5,461.012Z" transform="translate(-269.91 -58.738)" fill="#263238"></path><path id="Path_8710" data-name="Path 8710" d="M377.545,460.894s-.137.38-.3.79-.258.775-.35.76-.152-.426,0-.9S377.484,460.818,377.545,460.894Z" transform="translate(-265.638 -58.787)" fill="#263238"></path><path id="Path_8711" data-name="Path 8711" d="M378.9,459.214c.076,0-.091.35-.365.638s-.547.486-.623.425.106-.35.38-.653S378.843,459.153,378.9,459.214Z" transform="translate(-265.067 -59.66)" fill="#263238"></path><path id="Path_8712" data-name="Path 8712" d="M380.955,458.46c0,.091-.38.091-.775.243s-.669.38-.745.319.137-.441.638-.623S380.985,458.369,380.955,458.46Z" transform="translate(-264.276 -60.121)" fill="#263238"></path><path id="Path_8713" data-name="Path 8713" d="M382.038,458.014c0,.076-.106.228-.334.319s-.426.091-.471,0,.122-.228.35-.319A.7.7,0,0,1,382.038,458.014Z" transform="translate(-263.338 -60.298)" fill="#263238"></path><path id="Path_8714" data-name="Path 8714" d="M378.51,292.544a22.425,22.425,0,0,1,1.033-3.921c.35-1.185.79-2.614,1.337-4.179.274-.775.577-1.6.927-2.432.182-.456.426-.836.547-1.216a3.693,3.693,0,0,0,.152-1.246,20.348,20.348,0,0,0-.41-2.675c-.167-.866-.319-1.717-.471-2.538-.274-1.52-.517-3.039-.745-4.316a18.384,18.384,0,0,1-.486-4.012,20.79,20.79,0,0,1,1.064,3.906c.289,1.307.593,2.736.927,4.27.167.821.334,1.672.517,2.538a16.709,16.709,0,0,1,.441,2.811,4.36,4.36,0,0,1-.2,1.52,13.092,13.092,0,0,1-.593,1.277c-.35.821-.653,1.611-.942,2.386-.547,1.52-1.049,2.842-1.52,4.1A18.4,18.4,0,0,1,378.51,292.544Z" transform="translate(-264.749 -160.066)" fill="#263238"></path><g id="Group_1449" data-name="Group 1449" transform="translate(173.912 107.935)" opacity="0.3"><path id="Path_8715" data-name="Path 8715" d="M418.09,267.32c1.064,16.139,2.69,34.27,3.039,50.44,2.492-1.109,8.389-5.38,8.389-5.988C429.473,311.772,421.768,284.721,418.09,267.32Z" transform="translate(-418.09 -267.32)"></path></g><path id="Path_8716" data-name="Path 8716" d="M498.2,336.544s-111.274-23.313-122.049-18.237-60.455,127.9-60.455,127.9l33.51,12.31L394.71,356.7s81.943,30.911,95.56,28.084S498.2,336.544,498.2,336.544Z" transform="translate(-297.393 -133.262)" fill="#263238"></path><path id="Path_8717" data-name="Path 8717" d="M427.585,334.37c-1.7.562-66.078,27.021-70.606,35.531s6.672,149.723,6.672,149.723h36.61l-2.28-125.514,71.427-18.1Z" transform="translate(-276.5 -124.538)" fill="#263238"></path><path id="Path_8718" data-name="Path 8718" d="M464.878,372.332a4.559,4.559,0,0,1-1.049-.137l-3.039-.532c-2.6-.471-6.352-1.216-10.972-2.188-9.24-1.96-21.96-4.909-35.82-8.875-6.93-2.006-13.465-4.1-19.376-6.079s-11.17-4.042-15.516-5.912c-2.188-.881-4.134-1.763-5.851-2.538s-3.176-1.444-4.346-2.052l-2.72-1.368a4.333,4.333,0,0,1-.927-.532,6.074,6.074,0,0,1,1,.38l2.781,1.231c1.185.547,2.675,1.185,4.407,1.915s3.678,1.52,5.881,2.416c4.362,1.793,9.65,3.678,15.532,5.729s12.447,4.058,19.361,6.079c13.845,3.966,26.519,6.991,35.729,9.118l10.9,2.462,2.963.684a4.452,4.452,0,0,1,1.064.2Z" transform="translate(-271.635 -120.51)" fill="#455a64"></path><path id="Path_8719" data-name="Path 8719" d="M357.345,394.068a9.3,9.3,0,0,1-.334-2.112c-.167-1.52-.38-3.465-.623-5.79s-.5-5.41-.79-8.6a38.281,38.281,0,0,1,0-10.638,16.55,16.55,0,0,1,5.334-9.209,28.282,28.282,0,0,1,7.325-4.711,58.235,58.235,0,0,1,5.441-2.143,9.229,9.229,0,0,1,2.052-.593c0,.152-2.827,1.155-7.234,3.267a29.271,29.271,0,0,0-7.052,4.742,16.064,16.064,0,0,0-5.046,8.8,40.625,40.625,0,0,0,0,10.425c.243,3.207.441,6.079.623,8.617s.258,4.27.35,5.805a10.518,10.518,0,0,1-.046,2.143Z" transform="translate(-276.85 -116.274)" fill="#455a64"></path><path id="Path_8720" data-name="Path 8720" d="M377.75,371.11a26.747,26.747,0,0,1,8.662,3.814,13.674,13.674,0,0,1-4.559-1.52A13.464,13.464,0,0,1,377.75,371.11Z" transform="translate(-265.144 -105.443)" fill="#263238"></path><path id="Path_8721" data-name="Path 8721" d="M379.87,368.57a49.791,49.791,0,0,1,2.918,4.134,47.66,47.66,0,0,1,3.176,3.936,13.3,13.3,0,0,1-6.079-8.07Z" transform="translate(-264.042 -106.763)" fill="#263238"></path><path id="Path_8722" data-name="Path 8722" d="M392.011,372.38a1.27,1.27,0,0,1-.562.577,4.255,4.255,0,0,1-2.128.5,26.241,26.241,0,0,0-3.039.076,2.143,2.143,0,0,0-1.824,2.34,57.5,57.5,0,0,1-.456,9.772,57.007,57.007,0,0,1-.38-9.817,3.435,3.435,0,0,1,.7-2.082,2.827,2.827,0,0,1,1.839-.973,18.74,18.74,0,0,1,3.176.091,5.107,5.107,0,0,0,2.675-.486Z" transform="translate(-262.126 -104.783)" fill="#263238"></path><path id="Path_8723" data-name="Path 8723" d="M387.937,202.819c-5.562,1.808-12.021,5.5-8.814,22.9,1.4,7.6,3.192,15.471,8.328,21.276a2.827,2.827,0,0,0,5.03.258c5.836-6.368,10.805-13.875,12.386-22.37s-.79-18.054-7.462-23.525" transform="translate(-264.875 -193.666)" fill="#263238"></path><path id="Path_8724" data-name="Path 8724" d="M396.4,280.254c-.182-8.009-.532-16.6-.532-16.6s-12.158-1.52-12.7-13.981-.653-34.224-.653-34.224l23.8-17.614,16.717,22.993.41,59.011a13.526,13.526,0,0,1-13.526,13.677h0a13.511,13.511,0,0,1-13.51-13.269Z" transform="translate(-262.67 -195.495)" fill="#ffbe9d"></path><path id="Path_8725" data-name="Path 8725" d="M391.3,242.959a29.711,29.711,0,0,0,16.139-5.289s-3.784,9.118-15.927,8.343Z" transform="translate(-258.102 -174.795)" fill="#eb996e"></path><path id="Path_8726" data-name="Path 8726" d="M392.049,233.029a1.49,1.49,0,0,1,1.489-2.128,2.28,2.28,0,0,1,2.325-2.021,2.583,2.583,0,0,1,2.355,2.112,3.039,3.039,0,0,1-1.322,2.948,3.587,3.587,0,0,1-3.283.243,2.553,2.553,0,0,1-1.656-1.96" transform="translate(-257.787 -179.364)" fill="#eb996e"></path><path id="Path_8727" data-name="Path 8727" d="M384.16,219.881a1.717,1.717,0,0,0,1.656,1.717,1.641,1.641,0,0,0,1.763-1.52,1.717,1.717,0,0,0-1.657-1.717,1.641,1.641,0,0,0-1.763,1.52Z" transform="translate(-261.813 -184.832)" fill="#263238"></path><path id="Path_8728" data-name="Path 8728" d="M384.23,219.058c.213.213,1.52-.745,3.343-.729s3.176.912,3.374.7-.122-.5-.7-.942a4.726,4.726,0,0,0-2.705-.836,4.559,4.559,0,0,0-2.66.866C384.306,218.557,384.123,218.952,384.23,219.058Z" transform="translate(-261.791 -185.408)" fill="#263238"></path><path id="Path_8729" data-name="Path 8729" d="M396.3,219.986a1.717,1.717,0,0,0,1.641,1.732,1.641,1.641,0,0,0,1.763-1.52,1.7,1.7,0,0,0-1.641-1.717A1.641,1.641,0,0,0,396.3,219.986Z" transform="translate(-255.503 -184.77)" fill="#263238"></path><path id="Path_8730" data-name="Path 8730" d="M396.115,219.273c.213.228,1.52-.729,3.343-.729s3.176.927,3.374.7-.106-.5-.7-.927a4.726,4.726,0,0,0-2.705-.836,4.347,4.347,0,0,0-2.66.866C396.206,218.772,395.963,219.182,396.115,219.273Z" transform="translate(-255.622 -185.288)" fill="#263238"></path><path id="Path_8731" data-name="Path 8731" d="M393.323,232.854a13.677,13.677,0,0,0-3.039-.532c-.471,0-.912-.137-1-.456a2.432,2.432,0,0,1,.319-1.4l1.383-3.571a59.548,59.548,0,0,0,3.115-9.346,63.731,63.731,0,0,0-3.86,9.118c-.456,1.261-.9,2.447-1.322,3.6a2.66,2.66,0,0,0-.243,1.839,1.155,1.155,0,0,0,.775.684,3.144,3.144,0,0,0,.79.106,11.307,11.307,0,0,0,3.085-.046Z" transform="translate(-259.502 -185.252)" fill="#263238"></path><path id="Path_8732" data-name="Path 8732" d="M397.271,228.46c-.3,0-.3,1.976-2.006,3.389s-3.83,1.2-3.845,1.52.471.4,1.368.41a4.939,4.939,0,0,0,3.207-1.109,4.3,4.3,0,0,0,1.52-2.842C397.621,228.946,397.408,228.445,397.271,228.46Z" transform="translate(-258.039 -179.582)" fill="#263238"></path><path id="Path_8733" data-name="Path 8733" d="M395.553,216.467c.182.5,2.021.274,4.179.532s3.891.836,4.179.4c.122-.213-.167-.684-.881-1.17a7.356,7.356,0,0,0-6.368-.7C395.872,215.783,395.477,216.178,395.553,216.467Z" transform="translate(-255.896 -186.525)" fill="#263238"></path><path id="Path_8734" data-name="Path 8734" d="M384.676,215.57c.319.41,1.52,0,3.039,0s2.811.289,3.039-.152-.076-.623-.638-1.018a4.559,4.559,0,0,0-5,.152C384.706,214.932,384.539,215.358,384.676,215.57Z" transform="translate(-261.569 -187.239)" fill="#263238"></path><path id="Path_8735" data-name="Path 8735" d="M411.253,225.176a9.468,9.468,0,0,0,6.079-2.158c1.094,2.933,1.079,6.185,2.082,9.118s2.006,31.565,5.106,31.109c2.842-.441,6.246-29.133,6.976-31.914,2.006-7.69-.517-16.17-5.623-22.264-6.079-7.219-16.2-13.389-25.607-12.72a21.185,21.185,0,0,0-11.671,4.1s-5.076,3.921-4.666,8.921c.593,6.96,10.744,11.444,17.735,11.231l.988.973A12.158,12.158,0,0,0,411.253,225.176Z" transform="translate(-261.945 -196.297)" fill="#263238"></path><path id="Path_8736" data-name="Path 8736" d="M382.571,218.535a10.4,10.4,0,0,0,3.465-5.577,30.158,30.158,0,0,0,.806-6.611c0-.653,0-1.52-.684-1.641s-1.109.456-1.4,1a21.444,21.444,0,0,0-2.2,13.465l-.273.228" transform="translate(-262.792 -191.936)" fill="#263238"></path></g><g id="character-2--inject-132" transform="translate(235.952 175.168)"><path id="Path_8737" data-name="Path 8737" d="M278.636,465.348l.091-14.893-27.9-.334-.365,21.793,1.733.137c7.69.517,39.163,2.1,44.33.608C302.267,470.986,278.636,465.348,278.636,465.348Z" transform="translate(-151.373 19.986)" fill="#2274e5"></path><g id="Group_1450" data-name="Group 1450" transform="translate(99.102 483.678)" opacity="0.4"><path id="Path_8738" data-name="Path 8738" d="M260.561,467.18a9.711,9.711,0,0,0-3.48-6,9.483,9.483,0,0,0-6.5-2.112l-.106,7.811Z" transform="translate(-250.47 -459.051)"></path></g><g id="Group_1451" data-name="Group 1451" transform="translate(99.071 488.495)" opacity="0.4"><path id="Path_8739" data-name="Path 8739" d="M290.176,462.22s8.283,2.508,7.234,3.86-32.917.957-46.959-.456V465l37.157.79S288.549,462.281,290.176,462.22Z" transform="translate(-250.45 -462.22)"></path></g><path id="Path_8740" data-name="Path 8740" d="M250.2,464a2.45,2.45,0,0,0,.471,0l1.383.106,5.076.273c4.27.213,10.2.426,16.717.517s12.477,0,16.717,0l5.076-.137H273.832c-6.52,0-12.462-.273-16.717-.41l-5.076-.182h-1.368Z" transform="translate(-151.509 27.2)" fill="#263238"></path><path id="Path_8741" data-name="Path 8741" d="M274.936,466.326a11.5,11.5,0,0,1,.988-2.4,10.26,10.26,0,0,1,1.748-1.915,3.739,3.739,0,0,0-2.036,1.733,3.814,3.814,0,0,0-.7,2.583Z" transform="translate(-138.662 26.166)" fill="#263238"></path><path id="Path_8742" data-name="Path 8742" d="M269.554,462.791a3.852,3.852,0,0,0,.9-1.064c.426-.638.684-1.2.608-1.246s-.486.426-.9,1.064A3.38,3.38,0,0,0,269.554,462.791Z" transform="translate(-141.456 25.369)" fill="#263238"></path><path id="Path_8743" data-name="Path 8743" d="M268.076,461.758a4.14,4.14,0,0,0,.988-.638c.486-.426.836-.836.775-.9s-.5.213-.988.638S267.97,461.682,268.076,461.758Z" transform="translate(-142.227 25.232)" fill="#263238"></path><path id="Path_8744" data-name="Path 8744" d="M267.15,459.562a6.457,6.457,0,0,0,2.918,0,3.253,3.253,0,0,0-1.444-.2C267.819,459.395,267.15,459.456,267.15,459.562Z" transform="translate(-142.699 24.784)" fill="#263238"></path><path id="Path_8745" data-name="Path 8745" d="M266.85,458.26a4.148,4.148,0,0,0,3.3.289,10.726,10.726,0,0,0-1.656-.137,8.805,8.805,0,0,0-1.641-.152Z" transform="translate(-142.855 24.217)" fill="#263238"></path><path id="Path_8746" data-name="Path 8746" d="M270.19,461.284a4.817,4.817,0,0,0,1.793,0,10.5,10.5,0,0,0,1.915-.4,5.319,5.319,0,0,0,1.094-.441.972.972,0,0,0,.456-.547.729.729,0,0,0-.258-.729,3.3,3.3,0,0,0-4.681,2.112,1.124,1.124,0,0,0,0,.471,5.913,5.913,0,0,1,.836-1.52,3.358,3.358,0,0,1,1.52-.973,2.781,2.781,0,0,1,2.143.182c.274.213.167.547-.152.73a5.942,5.942,0,0,1-1.018.41,10.876,10.876,0,0,1-1.854.456C270.874,461.238,270.19,461.238,270.19,461.284Z" transform="translate(-141.119 24.506)" fill="#263238"></path><path id="Path_8747" data-name="Path 8747" d="M271.3,461.69a1.778,1.778,0,0,0,.213-1.231,2.8,2.8,0,0,0-.471-1.322,1.779,1.779,0,0,0-1.52-.927.7.7,0,0,0-.562.821,2.2,2.2,0,0,0,.289.805,6.087,6.087,0,0,0,.836,1.094c.547.547.988.775,1.018.729s-.35-.319-.851-.9a7.375,7.375,0,0,1-.73-1.079c-.243-.38-.4-1.064,0-1.14s.912.41,1.17.775a2.871,2.871,0,0,1,.5,1.17A7.439,7.439,0,0,1,271.3,461.69Z" transform="translate(-141.763 24.191)" fill="#263238"></path><path id="Path_8748" data-name="Path 8748" d="M250.64,459.066c0,.076.79,0,2.052.107a8.738,8.738,0,0,1,7.234,5.912c.41,1.2.441,2.006.517,2.006a1.779,1.779,0,0,0,0-.562,6.672,6.672,0,0,0-.289-1.52,8.678,8.678,0,0,0-2.766-4.21,8.814,8.814,0,0,0-4.666-1.884,6.9,6.9,0,0,0-1.52,0,1.989,1.989,0,0,0-.562.152Z" transform="translate(-151.28 24.535)" fill="#263238"></path><path id="Path_8749" data-name="Path 8749" d="M252.78,451.4a47.093,47.093,0,0,0-.319,5.729,45.605,45.605,0,0,0,0,5.729,49.6,49.6,0,0,0,.3-5.73,47.6,47.6,0,0,0,.015-5.729Z" transform="translate(-150.38 20.651)" fill="#263238"></path><path id="Path_8750" data-name="Path 8750" d="M259.45,462.636a15.425,15.425,0,0,0,4.058.456,15.194,15.194,0,0,0,4.088-.274c0-.091-1.824,0-4.073,0S259.45,462.545,259.45,462.636Z" transform="translate(-146.701 26.481)" fill="#263238"></path><path id="Path_8751" data-name="Path 8751" d="M255.85,462.583a5.321,5.321,0,0,0,.319.821c.182.426.274.79.38.775s.152-.441,0-.912S255.911,462.522,255.85,462.583Z" transform="translate(-148.572 26.459)" fill="#263238"></path><path id="Path_8752" data-name="Path 8752" d="M254.51,460.884a1.838,1.838,0,0,0,.4.654c.289.3.578.486.638.41s-.106-.35-.4-.654S254.586,460.823,254.51,460.884Z" transform="translate(-149.269 25.574)" fill="#263238"></path><path id="Path_8753" data-name="Path 8753" d="M252.581,460.136c0,.091.4.106.805.243s.7.38.775.319-.167-.456-.669-.638S252.55,460.015,252.581,460.136Z" transform="translate(-150.272 25.106)" fill="#263238"></path><path id="Path_8754" data-name="Path 8754" d="M251.2,459.723c0,.091.137.228.365.319s.441.106.471,0-.122-.228-.35-.319S251.246,459.632,251.2,459.723Z" transform="translate(-150.989 24.942)" fill="#263238"></path><path id="Path_8755" data-name="Path 8755" d="M204.106,465.348l-.091-14.893,27.9-.334.365,21.793-1.732.137c-7.69.517-39.163,2.1-44.33.608C180.459,470.986,204.106,465.348,204.106,465.348Z" transform="translate(-185.231 19.986)" fill="#2274e5"></path><g id="Group_1452" data-name="Group 1452" transform="translate(36.93 483.678)" opacity="0.4"><path id="Path_8756" data-name="Path 8756" d="M209.56,467.18a9.711,9.711,0,0,1,3.48-6,9.483,9.483,0,0,1,6.5-2.112l.106,7.811Z" transform="translate(-209.56 -459.051)"></path></g><g id="Group_1453" data-name="Group 1453" transform="translate(0 488.495)" opacity="0.4"><path id="Path_8757" data-name="Path 8757" d="M192.585,462.22s-8.282,2.508-7.234,3.86,32.917.957,46.959-.456V465l-37.157.79S194.211,462.281,192.585,462.22Z" transform="translate(-185.26 -462.22)"></path></g><path id="Path_8758" data-name="Path 8758" d="M232.644,464a2.45,2.45,0,0,1-.471,0l-1.383.106-5.076.273c-4.27.213-10.2.426-16.717.517s-12.477,0-16.717,0l-5.076-.137h21.808c6.52,0,12.462-.273,16.717-.41l5.076-.182h1.368Z" transform="translate(-185.213 27.2)" fill="#263238"></path><path id="Path_8759" data-name="Path 8759" d="M192.675,466.326a11.929,11.929,0,0,0-.973-2.4,10.637,10.637,0,0,0-1.763-1.915,3.739,3.739,0,0,1,2.036,1.733,3.814,3.814,0,0,1,.7,2.583Z" transform="translate(-182.827 26.166)" fill="#263238"></path><path id="Path_8760" data-name="Path 8760" d="M197.639,462.791a3.852,3.852,0,0,1-.9-1.064c-.426-.638-.684-1.2-.608-1.246s.486.426.9,1.064A3.38,3.38,0,0,1,197.639,462.791Z" transform="translate(-179.615 25.369)" fill="#263238"></path><path id="Path_8761" data-name="Path 8761" d="M199.205,461.758a4.139,4.139,0,0,1-.988-.638c-.486-.426-.836-.836-.775-.9s.5.213.988.638S199.266,461.682,199.205,461.758Z" transform="translate(-178.932 25.232)" fill="#263238"></path><path id="Path_8762" data-name="Path 8762" d="M200.518,459.564a6.458,6.458,0,0,1-2.918,0,3.312,3.312,0,0,1,1.52-.2C199.849,459.4,200.518,459.457,200.518,459.564Z" transform="translate(-178.846 24.782)" fill="#263238"></path><path id="Path_8763" data-name="Path 8763" d="M200.948,458.26a4.148,4.148,0,0,1-3.3.289,10.727,10.727,0,0,1,1.657-.137,8.8,8.8,0,0,1,1.641-.152Z" transform="translate(-178.82 24.217)" fill="#263238"></path><path id="Path_8764" data-name="Path 8764" d="M198.284,461.284a4.817,4.817,0,0,1-1.793,0,10.5,10.5,0,0,1-1.915-.4,5.317,5.317,0,0,1-1.094-.441.973.973,0,0,1-.456-.547.729.729,0,0,1,.258-.729,3.3,3.3,0,0,1,4.681,2.112,1.125,1.125,0,0,1,0,.471,5.914,5.914,0,0,0-.836-1.52,3.358,3.358,0,0,0-1.52-.973,2.781,2.781,0,0,0-2.143.182c-.274.213-.167.547.152.73a5.94,5.94,0,0,0,1.018.41,10.877,10.877,0,0,0,1.854.456C197.555,461.238,198.284,461.238,198.284,461.284Z" transform="translate(-181.232 24.506)" fill="#263238"></path><path id="Path_8765" data-name="Path 8765" d="M196.253,461.69a1.778,1.778,0,0,1-.213-1.231,2.8,2.8,0,0,1,.471-1.322,1.778,1.778,0,0,1,1.52-.927.7.7,0,0,1,.562.821,2.2,2.2,0,0,1-.289.805,6.082,6.082,0,0,1-.836,1.094c-.547.547-.988.775-1.018.729s.365-.319.851-.9a6.338,6.338,0,0,0,.729-1.079c.243-.38.4-1.064,0-1.14s-.912.41-1.17.775a3.04,3.04,0,0,0-.5,1.17,7.452,7.452,0,0,0-.106,1.2Z" transform="translate(-179.673 24.191)" fill="#263238"></path><path id="Path_8766" data-name="Path 8766" d="M219.36,459.066c0,.076-.79,0-2.052.107a8.738,8.738,0,0,0-7.234,5.912c-.41,1.2-.441,2.006-.517,2.006a1.776,1.776,0,0,1,0-.562,6.674,6.674,0,0,1,.289-1.52,8.677,8.677,0,0,1,2.766-4.21,8.814,8.814,0,0,1,4.666-1.884,6.9,6.9,0,0,1,1.52,0,1.993,1.993,0,0,1,.562.152Z" transform="translate(-172.643 24.535)" fill="#263238"></path><path id="Path_8767" data-name="Path 8767" d="M214.027,451.4a47.124,47.124,0,0,1,.319,5.729,45.574,45.574,0,0,1,0,5.729,49.6,49.6,0,0,1-.3-5.729A47.605,47.605,0,0,1,214.027,451.4Z" transform="translate(-170.35 20.651)" fill="#263238"></path><path id="Path_8768" data-name="Path 8768" d="M210.006,462.636a15.425,15.425,0,0,1-4.058.456,15.194,15.194,0,0,1-4.088-.274c0-.091,1.824,0,4.073,0S210.006,462.545,210.006,462.636Z" transform="translate(-176.632 26.481)" fill="#263238"></path><path id="Path_8769" data-name="Path 8769" d="M211.092,462.583c.076.076-.137.4-.319.821s-.274.79-.38.775-.152-.441,0-.912S211.032,462.522,211.092,462.583Z" transform="translate(-172.248 26.459)" fill="#263238"></path><path id="Path_8770" data-name="Path 8770" d="M212.518,460.884a1.838,1.838,0,0,1-.4.654c-.289.3-.578.486-.638.41s.106-.35.4-.654S212.442,460.823,212.518,460.884Z" transform="translate(-171.637 25.574)" fill="#263238"></path><path id="Path_8771" data-name="Path 8771" d="M214.635,460.136c0,.091-.4.106-.805.243s-.7.38-.775.319.167-.456.669-.638S214.666,460.015,214.635,460.136Z" transform="translate(-170.821 25.106)" fill="#263238"></path><path id="Path_8772" data-name="Path 8772" d="M215.757,459.723c0,.091-.137.228-.365.319s-.441.106-.471,0,.122-.228.35-.319S215.712,459.632,215.757,459.723Z" transform="translate(-169.846 24.942)" fill="#263238"></path><path id="Path_8773" data-name="Path 8773" d="M328.28,272.39l-10.7,279.69-43.464.912,7.219-242.35-48.874,244.2H191.14l53.221-281.893Z" transform="translate(-182.203 -72.384)" fill="#263238"></path><path id="Path_8774" data-name="Path 8774" d="M260.749,279.08a27.191,27.191,0,0,1-.5,4.559c-.4,2.827-1.018,6.732-1.732,11.033a48.743,48.743,0,0,1-1.246,6.079,8.571,8.571,0,0,1-2.842,4.255,6.6,6.6,0,0,1-3.146,1.413,2.767,2.767,0,0,1-1.261,0,7.8,7.8,0,0,0,6.58-5.881,54.939,54.939,0,0,0,1.155-5.973c.729-4.316,1.413-8.206,1.96-11a28.5,28.5,0,0,1,1.033-4.483Z" transform="translate(-151.602 -68.907)" fill="#263238"></path><path id="Path_8775" data-name="Path 8775" d="M251.32,280.248c.091.076-.258.532,0,1.261a1.52,1.52,0,0,0,.729.942,1.231,1.231,0,0,0,1.307-.258,1.2,1.2,0,0,0,.41-1.261,1.52,1.52,0,0,0-.836-.836c-.7-.3-1.185,0-1.246-.106s.4-.638,1.413-.41a1.9,1.9,0,1,1-2.31,1.976C250.636,280.506,251.289,280.1,251.32,280.248Z" transform="translate(-151.215 -68.677)" fill="#263238"></path><path id="Path_8776" data-name="Path 8776" d="M235.978,285.246a8.237,8.237,0,0,1,.836-7.766c.2.091-.426,1.748-.638,3.86S236.206,285.2,235.978,285.246Z" transform="translate(-159.216 -69.739)" fill="#263238"></path><path id="Path_8777" data-name="Path 8777" d="M239.431,285.14a9.544,9.544,0,0,1,.562-8.1,33.157,33.157,0,0,1-.425,4.042,31.159,31.159,0,0,1-.137,4.058Z" transform="translate(-157.441 -69.968)" fill="#263238"></path><path id="Path_8778" data-name="Path 8778" d="M268.772,285.994a26.118,26.118,0,0,1,.243-4.194,26.288,26.288,0,0,1,.182-4.21,7.842,7.842,0,0,1,.577,4.24A7.949,7.949,0,0,1,268.772,285.994Z" transform="translate(-141.86 -69.682)" fill="#263238"></path><path id="Path_8779" data-name="Path 8779" d="M272.514,285.841c-.213-.076.471-1.915.623-4.255s-.243-4.255,0-4.316a9.118,9.118,0,0,1-.608,8.571Z" transform="translate(-139.933 -69.848)" fill="#263238"></path><path id="Path_8780" data-name="Path 8780" d="M243.006,219.818l26.838-2.143c.167-3.131,0-15.2,0-15.2s11.155-1.732,11.292-12.887-1.793-36.792-1.793-36.792h0a38.8,38.8,0,0,0-38.981,4.894l-1.641,1.277Z" transform="translate(-157.475 -136.178)" fill="#ffbe9d"></path><path id="Path_8781" data-name="Path 8781" d="M264.144,185.684A26.048,26.048,0,0,1,249.6,181.55s3.435,8.024,14.574,7.021Z" transform="translate(-151.82 -119.596)" fill="#eb996e"></path><path id="Path_8782" data-name="Path 8782" d="M242.123,163.473c-.182-.091-7.675-2.28-7.431,5.349s7.857,5.821,7.872,5.593S242.123,163.473,242.123,163.473Z" transform="translate(-159.571 -129.178)" fill="#ffbe9d"></path><path id="Path_8783" data-name="Path 8783" d="M239.456,170.764a1.6,1.6,0,0,1-.35.213,1.322,1.322,0,0,1-.988,0,3.3,3.3,0,0,1-1.626-2.9,4.559,4.559,0,0,1,.319-1.915,1.52,1.52,0,0,1,.973-1.049.669.669,0,0,1,.79.334c.106.213,0,.365.106.38s.152-.137.091-.441a.9.9,0,0,0-.319-.471.942.942,0,0,0-.745-.167,1.885,1.885,0,0,0-1.353,1.216,4.559,4.559,0,0,0-.35,2.219,3.45,3.45,0,0,0,2.036,3.237,1.413,1.413,0,0,0,1.216-.243C239.456,170.947,239.487,170.779,239.456,170.764Z" transform="translate(-158.895 -128.339)" fill="#eb996e"></path><path id="Path_8784" data-name="Path 8784" d="M264.872,163.685a1.611,1.611,0,0,1-1.52,1.611,1.533,1.533,0,1,1,1.52-1.611Z" transform="translate(-145.528 -129.633)" fill="#263238"></path><path id="Path_8785" data-name="Path 8785" d="M266.131,162.572c-.2.213-1.4-.684-3.039-.684s-3.039.866-3.161.653.106-.471.653-.866a4.331,4.331,0,0,1,2.538-.775,4.2,4.2,0,0,1,2.477.79C266.131,162.116,266.268,162.572,266.131,162.572Z" transform="translate(-146.468 -130.328)" fill="#263238"></path><path id="Path_8786" data-name="Path 8786" d="M253.822,163.94a1.52,1.52,0,1,1-.52-1.06,1.52,1.52,0,0,1,.52,1.06Z" transform="translate(-151.27 -129.493)" fill="#263238"></path><path id="Path_8787" data-name="Path 8787" d="M255.086,162.792c-.2.213-1.413-.684-3.131-.684s-3.039.866-3.146.653.106-.471.653-.866a4.285,4.285,0,0,1,2.523-.775,4.209,4.209,0,0,1,2.492.79C254.994,162.321,255.192,162.7,255.086,162.792Z" transform="translate(-152.245 -130.214)" fill="#263238"></path><path id="Path_8788" data-name="Path 8788" d="M257.265,175.475a10.637,10.637,0,0,1,2.8-.5c.441,0,.851-.137.927-.441a2.233,2.233,0,0,0-.3-1.292c-.41-1.064-.836-2.173-1.292-3.328a57.51,57.51,0,0,1-2.9-8.723,57.142,57.142,0,0,1,3.6,8.465c.425,1.17.851,2.28,1.246,3.359a2.584,2.584,0,0,1,.228,1.717,1.125,1.125,0,0,1-.729.638,3.512,3.512,0,0,1-.745.106,11.626,11.626,0,0,1-2.827,0Z" transform="translate(-148.24 -130.177)" fill="#263238"></path><path id="Path_8789" data-name="Path 8789" d="M253.825,171.37c.289,0,.289,1.839,1.884,3.161s3.571,1.125,3.587,1.383-.441.365-1.277.38a4.559,4.559,0,0,1-3.039-1.033,4.073,4.073,0,0,1-1.52-2.66C253.49,171.826,253.7,171.355,253.825,171.37Z" transform="translate(-149.814 -124.887)" fill="#263238"></path><path id="Path_8790" data-name="Path 8790" d="M255.913,158.241c-.167.456-1.884.243-3.891.486s-3.647.79-3.906.365.152-.638.821-1.094a6.9,6.9,0,0,1,5.942-.653C255.579,157.648,255.989,158.013,255.913,158.241Z" transform="translate(-152.632 -132.38)" fill="#263238"></path><path id="Path_8791" data-name="Path 8791" d="M265.632,159.339c-.3.4-1.52,0-2.9,0s-2.629.258-2.9-.152,0-.577.593-.957a4.012,4.012,0,0,1,2.356-.638,4.1,4.1,0,0,1,2.325.79C265.6,158.746,265.769,159.157,265.632,159.339Z" transform="translate(-146.561 -132.05)" fill="#263238"></path><path id="Path_8792" data-name="Path 8792" d="M286.121,150.231a4.1,4.1,0,0,0-1.52-3.678,2.918,2.918,0,0,0-3.784.274,3.419,3.419,0,0,0-2.933-4.134c-1.824-.106-3.374,1.261-5.137,1.748a8.268,8.268,0,0,1-5.213-.608c-1.641-.653-3.191-1.52-4.863-2.188a14.285,14.285,0,0,0-18.237,8.374,6.337,6.337,0,0,0-6.717,2.553,10.38,10.38,0,0,0-1.52,7.325,22.8,22.8,0,0,0,1.277,5c0,.152,0,.289,0,.426.122,6.079.805,13.358,3.435,13.389,4.559.076,3.465-8.526,3.465-8.526,5.608-2.158,3.526-10.562,4.924-11.823s4.331-4.24,16.048,1.763a22.8,22.8,0,0,0,13.921,1.52h.4a10.638,10.638,0,0,0,3.04-1.277,5.942,5.942,0,0,0,2.477-2.751,3.3,3.3,0,0,0-.638-3.5,7.126,7.126,0,0,0,1.58-3.89Z" transform="translate(-158.858 -140.783)" fill="#263238"></path><path id="Path_8793" data-name="Path 8793" d="M246.63,193.824c3.754-.714,7.416-2.082,11.839-2.264h0a47.521,47.521,0,0,0,28.616,0c1.155.152,2.766.3,4.8.532,12.416,1.52,17.188,4.1,26.109,12.872l-.973,50.3s3.039,57.233,2.781,66.473H234.883V272.364L206.92,282.515l2.553-14.665s12.507-48.631,14.468-55.181C226.251,204.721,234.777,196.1,246.63,193.824Z" transform="translate(-174.002 -114.393)" fill="#2274e5"></path><path id="Path_8794" data-name="Path 8794" d="M219.686,244.357l41.868-5.957,7.948,14.255-38.9,17.538a16.716,16.716,0,0,1-6.9,1.52h0a16.793,16.793,0,0,1-15.547-10.425l-1.261-3.039Z" transform="translate(-174.018 -90.05)" fill="#2274e5"></path><path id="Path_8795" data-name="Path 8795" d="M280.455,235.551l-.912-.669a20.866,20.866,0,0,0-16.474-3.815h0a28.723,28.723,0,0,0-12.826,6.079l-7.173,5.912,7.6,13.677,5.2-7.264s4.833,6.565,5.7,5.881a11.186,11.186,0,0,0,1.9-2.766l-3.45-4.848,8.328,1.657,12.158-5.532-5.243-6.626,5.2,1.732Z" transform="translate(-155.214 -94.055)" fill="#ffbe9d"></path><path id="Path_8796" data-name="Path 8796" d="M273.794,194s11.823,4.027,16.793,15.41c3.237,7.416,8.009,43.145,8.009,43.145l6,11.58a19.514,19.514,0,0,1,2.188,9v1.763a19.452,19.452,0,0,1-4.377,12.325h0a19.528,19.528,0,0,1-13.419,7.143c-6,.532-13.252.76-14.8-1-2.736-3.131-6.839-11.52-6.839-11.52l17.492-9.285-7.6-13.951Z" transform="translate(-142.595 -113.125)" fill="#2274e5"></path><path id="Path_8797" data-name="Path 8797" d="M229.545,269.01a5.509,5.509,0,0,1,.669-.38l2.006-.973,7.507-3.511L265.4,252.43l-.167.532-4.924-8.784-3.039-5.471.365.2-30.653,3.039-9.118.821-2.462.182a3.758,3.758,0,0,1-.866,0,3.544,3.544,0,0,1,.851-.152l2.447-.319,9.118-1.049,30.638-3.267h.213l.122.213c.988,1.748,2.021,3.587,3.039,5.471l4.909,8.784.2.35-.38.167L239.94,264.618l-7.6,3.3-2.052.866a5.214,5.214,0,0,1-.745.228Z" transform="translate(-170.047 -90.174)" fill="#263238"></path><path id="Path_8798" data-name="Path 8798" d="M229.435,251.024c-.213,0-.4-7.477-.4-16.717s.182-16.717.4-16.717.38,7.477.38,16.717S229.648,251.024,229.435,251.024Z" transform="translate(-162.506 -100.865)" fill="#263238"></path><path id="Path_8799" data-name="Path 8799" d="M280.193,247.088a3.556,3.556,0,0,1,1.277-.213,12.068,12.068,0,0,1,3.526.213,4.149,4.149,0,0,1,2.219,1.261,5.866,5.866,0,0,1,1.155,2.659,6.261,6.261,0,0,1-.289,3.191,5.942,5.942,0,0,1-2.112,2.72,15.972,15.972,0,0,1-6.079,2.158,28.268,28.268,0,0,1-5.2.5,9.483,9.483,0,0,1-4.711-.821,23.336,23.336,0,0,0,4.711.289,33.255,33.255,0,0,0,5.061-.654,16.14,16.14,0,0,0,5.76-2.188,5.258,5.258,0,0,0,2.158-5.167,5.334,5.334,0,0,0-.942-2.432,3.754,3.754,0,0,0-1.869-1.125,13.92,13.92,0,0,0-3.389-.441,5.729,5.729,0,0,1-1.276.046Z" transform="translate(-141.229 -85.668)" fill="#263238"></path><path id="Path_8800" data-name="Path 8800" d="M287.138,263.035a9.119,9.119,0,0,1-3.039.365,19.344,19.344,0,0,1-7.234-1.2,16.825,16.825,0,0,1-3.6-1.915,8.8,8.8,0,0,1-2.219-2.523,6.444,6.444,0,0,1-1.064-2.842c.121,0,.517,1.049,1.52,2.553a8.89,8.89,0,0,0,2.188,2.234,16.807,16.807,0,0,0,3.465,1.778,22.794,22.794,0,0,0,6.96,1.368,17.072,17.072,0,0,1,3.024.182Z" transform="translate(-141.229 -81.464)" fill="#263238"></path><path id="Path_8801" data-name="Path 8801" d="M292.035,236.4a14.484,14.484,0,0,1-2.067,2.477c-1.337,1.52-3.237,3.48-5.365,5.669s-4.073,4.118-5.517,5.5a13.676,13.676,0,0,1-2.447,2.128,13.329,13.329,0,0,1,2.052-2.508c1.353-1.52,3.237-3.48,5.365-5.669a74.809,74.809,0,0,1,7.979-7.6Z" transform="translate(-137.767 -91.089)" fill="#263238"></path><path id="Path_8802" data-name="Path 8802" d="M274.369,237.8a58.947,58.947,0,0,1-.35-9.529,58.95,58.95,0,0,1,.4-9.559,60.112,60.112,0,0,1,.38,9.559A60.1,60.1,0,0,1,274.369,237.8Z" transform="translate(-139.159 -100.283)" fill="#263238"></path><path id="Path_8803" data-name="Path 8803" d="M314.553,204.425c0,.213-21.443.38-47.871.38s-47.871-.167-47.871-.38,21.428-.4,47.871-.4S314.553,204.212,314.553,204.425Z" transform="translate(-167.823 -107.912)" fill="#e0e0e0"></path><path id="Path_8804" data-name="Path 8804" d="M317.934,209.43c0,.213-22.583.4-50.44.4s-50.455-.182-50.455-.4,22.583-.38,50.455-.38S317.934,209.217,317.934,209.43Z" transform="translate(-168.743 -105.303)" fill="#e0e0e0"></path><path id="Path_8805" data-name="Path 8805" d="M309.355,199.84c0,.213-19.68.4-43.95.4s-43.935-.182-43.935-.4,19.665-.38,43.935-.38S309.355,199.627,309.355,199.84Z" transform="translate(-166.44 -110.288)" fill="#e0e0e0"></path><path id="Path_8806" data-name="Path 8806" d="M311.421,275.575c0,.213-19.27.38-43.023.38s-43.008-.167-43.008-.38,19.255-.4,43.008-.4S311.421,275.362,311.421,275.575Z" transform="translate(-164.403 -70.934)" fill="#e0e0e0"></path><path id="Path_8807" data-name="Path 8807" d="M310.6,272.35c0,.213-19,.38-42.446.38s-42.446-.167-42.446-.38,19.012-.38,42.446-.38S310.6,272.137,310.6,272.35Z" transform="translate(-164.237 -72.603)" fill="#e0e0e0"></path><path id="Path_8808" data-name="Path 8808" d="M309.928,268.18c0,.213-18.936.38-42.294.38s-42.294-.167-42.294-.38,18.936-.38,42.294-.38S309.928,267.967,309.928,268.18Z" transform="translate(-164.429 -74.77)" fill="#e0e0e0"></path><path id="Path_8809" data-name="Path 8809" d="M242.69,257a7.993,7.993,0,0,1-2.1-2.006,20.562,20.562,0,0,1-3.5-6.17,20.152,20.152,0,0,1-1.155-6.991,7.9,7.9,0,0,1,.41-2.9A26.079,26.079,0,0,0,242.736,257Z" transform="translate(-158.923 -89.774)" fill="#e0e0e0"></path><path id="Path_8810" data-name="Path 8810" d="M240.3,259.111a9.117,9.117,0,0,1-2.31-2.2,22.02,22.02,0,0,1-3.784-6.763,22.615,22.615,0,0,1-1.231-7.6,8.648,8.648,0,0,1,.456-3.176,33.966,33.966,0,0,0,1.52,10.638A34.4,34.4,0,0,0,240.3,259.111Z" transform="translate(-160.466 -89.545)" fill="#e0e0e0"></path><path id="Path_8811" data-name="Path 8811" d="M237.947,260.756a9.378,9.378,0,0,1-2.6-2.219,19.832,19.832,0,0,1-4.118-7.143,20.046,20.046,0,0,1-.9-8.191,8.921,8.921,0,0,1,.805-3.313c.122,0-.167,1.292-.258,3.359a22.552,22.552,0,0,0,1.079,7.918,22.9,22.9,0,0,0,3.8,7.021C237.05,259.814,238.038,260.649,237.947,260.756Z" transform="translate(-161.884 -89.275)" fill="#e0e0e0"></path><path id="Path_8812" data-name="Path 8812" d="M270.81,261.4a9.455,9.455,0,0,0,1.292.805,9.118,9.118,0,0,0,3.936.988,33.3,33.3,0,0,0,6.079-.4,9.514,9.514,0,0,0,6.413-3.131,9.118,9.118,0,0,0,1.915-6.839,9.742,9.742,0,0,0-2.659-5.273,14.3,14.3,0,0,0-4.681-3.039,3.753,3.753,0,0,1,1.52.365,10.99,10.99,0,0,1,3.571,2.295,10.015,10.015,0,0,1,2.963,5.562,9.635,9.635,0,0,1-2.021,7.416,8.207,8.207,0,0,1-3.267,2.431,13.678,13.678,0,0,1-3.632.912,31.121,31.121,0,0,1-6.261.243,8.769,8.769,0,0,1-4.042-1.277,3.328,3.328,0,0,1-1.125-1.064Z" transform="translate(-140.797 -86.869)" fill="#e0e0e0"></path><path id="Path_8813" data-name="Path 8813" d="M285.34,242.93h.456a4.864,4.864,0,0,1,1.337.228,8.45,8.45,0,0,1,3.921,2.963,19.756,19.756,0,0,1,3.267,6.52,12,12,0,0,1,.486,4.346,9.529,9.529,0,0,1-1.52,4.453,13.586,13.586,0,0,1-7.219,5.243,21.607,21.607,0,0,1-7.249.836,41.447,41.447,0,0,1-4.863-.517,7.035,7.035,0,0,1-1.748-.4c0-.137,2.538.274,6.626.365a22.066,22.066,0,0,0,7.021-.957,13.161,13.161,0,0,0,6.793-5,8.982,8.982,0,0,0,1.52-4.088,11.748,11.748,0,0,0-.41-4.088,20.791,20.791,0,0,0-3.039-6.383,8.556,8.556,0,0,0-3.6-3.039C285.979,243.036,285.325,243.036,285.34,242.93Z" transform="translate(-140.07 -87.695)" fill="#e0e0e0"></path><path id="Path_8814" data-name="Path 8814" d="M268.371,235.18,241.73,267.444l2.036,2.2L287,263.067,308.431,230.8l-1.991-1.793Z" transform="translate(-155.911 -94.93)" fill="#263238"></path><path id="Path_8815" data-name="Path 8815" d="M291.963,238.67h0a4.118,4.118,0,0,0-3.845,2.629,8.844,8.844,0,0,1-2.614,4.179c-1.93,1.049-5.243,1.884-6.991,1.033s-8.723-7.143-9.954-6.444-2.264,2.28-1.049,3.663,7.69,5.593,6.459,6.991-14.833-4.757-16.93-4.21-3.328,1.839-2.1,2.675,10.471,4.331,11,5.547c0,0-13.981-3.663-14.5-2.781s-1.4,2.264,0,2.781,13.45,3.678,14.5,4.194a24.924,24.924,0,0,0,5.38,1.52,57.584,57.584,0,0,1,5.623,1.778,12.325,12.325,0,0,0,8.693-.228l1.413-.578a5.562,5.562,0,0,0,3.45-5.471l-.289-4.62,1.52-3.936Z" transform="translate(-151.252 -89.909)" fill="#ffbe9d"></path><path id="Path_8816" data-name="Path 8816" d="M307.743,230.3a4.011,4.011,0,0,1-.79.182l-2.31.41-8.526,1.368-12.659,1.945L276,235.33a14.27,14.27,0,0,0-7.234,2.933,49.453,49.453,0,0,0-5.273,6.079q-2.447,3.039-4.726,5.9l-8.039,10-5.471,6.672-1.52,1.793a3.358,3.358,0,0,1-.562.593,2.887,2.887,0,0,1,.441-.684l1.413-1.884L250.3,259.9l7.918-10.061,4.7-5.927a47.505,47.505,0,0,1,5.365-6.17,15,15,0,0,1,7.6-3.039l7.492-1.079,12.674-1.778,8.556-1.125,2.325-.274a3.038,3.038,0,0,1,.821-.152Z" transform="translate(-155.162 -94.259)" fill="#455a64"></path><path id="Path_8817" data-name="Path 8817" d="M272.851,235a3.434,3.434,0,0,0-1.2.973,1.231,1.231,0,0,0,0,1.444,1.337,1.337,0,0,0,1.793,0,1.763,1.763,0,0,0,.684-1.033,1.246,1.246,0,0,0-.365-1.155.942.942,0,0,0-1.17,0" transform="translate(-140.482 -91.817)" fill="#fafafa"></path></g><g id="character-1--inject-132" transform="translate(0 238.695)"><rect id="Rectangle_1139" data-name="Rectangle 1139" width="69.786" height="140.741" transform="translate(13.146 116.281)" fill="#455a64"></rect><path id="Path_8818" data-name="Path 8818" d="M44.5,399.522h0a10.9,10.9,0,0,1-10.881-10.9V270A10.9,10.9,0,0,1,44.5,259.1h0A10.9,10.9,0,0,1,55.474,270v118.63a10.9,10.9,0,0,1-10.972,10.9Z" transform="translate(-28.119 -142.819)" fill="#455a64"></path><path id="Path_8819" data-name="Path 8819" d="M44.539,262.83a1.17,1.17,0,0,1,0,.35l.106,1.018c0,.988.182,2.31.319,3.982.258,3.511.608,8.48,1.049,14.589.821,12.4,1.93,29.407,3.161,48.19s2.264,35.85,2.872,48.206a37.643,37.643,0,0,1-1.808,14.513,20.077,20.077,0,0,1-1.763,3.586l-.608.851a1.43,1.43,0,0,1-.228.274,26.553,26.553,0,0,0,2.31-4.818,38.555,38.555,0,0,0,1.52-14.392c-.79-12.386-1.884-29.391-3.039-48.175s-2.158-35.8-2.918-48.16c-.334-6.079-.593-11.079-.79-14.6,0-1.672-.137-3.039-.182-3.982v-1.033a.79.79,0,0,1,0-.4Z" transform="translate(-22.457 -140.88)" fill="#263238"></path><rect id="Rectangle_1140" data-name="Rectangle 1140" width="11.246" height="134.784" transform="translate(76.67 274.5)" fill="#455a64"></rect><path id="Path_8820" data-name="Path 8820" d="M190.832,369.182H30A17.477,17.477,0,0,1,47.477,351.72H173.431a17.462,17.462,0,0,1,17.462,17.462Z" transform="translate(-30 -94.682)" fill="#455a64"></path><path id="Path_8821" data-name="Path 8821" d="M97.4,363.6a59.514,59.514,0,0,1-9.863.41,59.63,59.63,0,0,1-9.878-.41,59.631,59.631,0,0,1,9.878-.41,59.507,59.507,0,0,1,9.863.41Z" transform="translate(-5.23 -88.749)" fill="#263238"></path><path id="Path_8822" data-name="Path 8822" d="M150.312,476.842h-1.52a47.871,47.871,0,1,0-95.743,0H51.53a49.452,49.452,0,1,1,98.9,0Z" transform="translate(-18.81 -55.355)" fill="#455a64"></path><ellipse id="Ellipse_758" data-name="Ellipse 758" cx="7.416" cy="7.416" rx="7.416" ry="7.416" transform="translate(25.972 413.174)" fill="#263238"></ellipse><path id="Path_8823" data-name="Path 8823" d="M126.172,462.106a7.416,7.416,0,1,1-7.416-7.416,7.416,7.416,0,0,1,7.416,7.416Z" transform="translate(12.274 -41.166)" fill="#455a64"></path><path id="Path_8824" data-name="Path 8824" d="M149.077,452.04c0,.228-21.519.41-48.069.41S53,452.268,53,452.04s21.519-.41,48.069-.41S149.077,451.812,149.077,452.04Z" transform="translate(-18.046 -42.757)" fill="#455a64"></path><path id="Path_8825" data-name="Path 8825" d="M93.367,351.594a16.532,16.532,0,0,1-2.432.167l-6.626.167c-5.593.122-13.313.213-21.838.274l-12.036.091a40.713,40.713,0,0,0-9.681.866,16.2,16.2,0,0,0-5.866,2.8c-1.231.927-1.793,1.611-1.854,1.52s.106-.2.38-.517a10.974,10.974,0,0,1,1.277-1.277,15.409,15.409,0,0,1,5.912-3.039,39.226,39.226,0,0,1,9.817-1.064c3.678-.091,7.766-.106,12.021-.137,8.541,0,16.276-.076,21.869,0l6.626.076a13.527,13.527,0,0,1,2.432.076Z" transform="translate(-28.43 -94.844)" fill="#263238"></path><path id="Path_8826" data-name="Path 8826" d="M74.807,287.674h0c8.374,0,15.319-5.471,15.44-30.911,0-5.121-.152-9.559-.152-9.559s12.158-1.094,12.978-12.811.213-38.9.213-38.9h0a41.853,41.853,0,0,0-41.823,2.766l-1.854,1.231.593,57.582C60.2,265.152,66.555,287.674,74.807,287.674Z" transform="translate(-14.611 -178.125)" fill="#b78876"></path><path id="Path_8827" data-name="Path 8827" d="M84.929,229.739A28.191,28.191,0,0,1,69.61,224.45s3.146,8.662,15.2,8.328Z" transform="translate(-9.414 -160.827)" fill="#aa6550"></path><path id="Path_8828" data-name="Path 8828" d="M87.6,206.975a1.657,1.657,0,0,1-1.611,1.656,1.6,1.6,0,0,1-1.732-1.52,1.656,1.656,0,0,1,1.611-1.657,1.52,1.52,0,0,1,1.732,1.52Z" transform="translate(-1.8 -170.707)" fill="#263238"></path><path id="Path_8829" data-name="Path 8829" d="M88.974,205.822c-.2.213-1.52-.714-3.283-.7s-3.131.881-3.313.669.106-.486.684-.9a4.726,4.726,0,0,1,2.66-.805,4.559,4.559,0,0,1,2.614.836C88.9,205.336,89.081,205.731,88.974,205.822Z" transform="translate(-2.806 -171.409)" fill="#263238"></path><path id="Path_8830" data-name="Path 8830" d="M75.973,207.242a1.657,1.657,0,0,1-1.611,1.656,1.52,1.52,0,0,1-1.732-1.52,1.657,1.657,0,0,1,1.611-1.656,1.6,1.6,0,0,1,1.732,1.52Z" transform="translate(-7.844 -170.564)" fill="#263238"></path><path id="Path_8831" data-name="Path 8831" d="M77.281,206.043c-.213.213-1.52-.714-3.283-.714s-3.131.9-3.328.684.122-.486.7-.9a4.68,4.68,0,0,1,2.66-.805,4.559,4.559,0,0,1,2.614.821C77.281,205.556,77.433,205.936,77.281,206.043Z" transform="translate(-8.893 -171.294)" fill="#263238"></path><path id="Path_8832" data-name="Path 8832" d="M79.615,219.121a11.73,11.73,0,0,1,2.933-.517c.456,0,.9-.137.973-.456a2.371,2.371,0,0,0-.3-1.337c-.441-1.094-.9-2.234-1.368-3.435a57.2,57.2,0,0,1-3.039-9,58.921,58.921,0,0,1,3.784,8.738l1.307,3.45a2.583,2.583,0,0,1,.243,1.778,1.155,1.155,0,0,1-.76.654,2.583,2.583,0,0,1-.79.106A12.292,12.292,0,0,1,79.615,219.121Z" transform="translate(-4.632 -171.258)" fill="#263238"></path><path id="Path_8833" data-name="Path 8833" d="M75.936,214.88c.3,0,.3,1.9,1.976,3.267s3.769,1.155,3.784,1.413-.471.38-1.353.41a4.985,4.985,0,0,1-3.146-1.079,4.164,4.164,0,0,1-1.52-2.736C75.586,215.351,75.814,214.865,75.936,214.88Z" transform="translate(-6.271 -165.801)" fill="#263238"></path><path id="Path_8834" data-name="Path 8834" d="M78.181,201.346c-.182.471-1.991.243-4.1.5s-3.83.805-4.118.38.182-.653.866-1.125a7.264,7.264,0,0,1,6.261-.669C77.862,200.738,78.257,201.118,78.181,201.346Z" transform="translate(-9.277 -173.527)" fill="#263238"></path><path id="Path_8835" data-name="Path 8835" d="M88.365,202.472c-.319.41-1.52,0-3.039,0s-2.766.274-3.039-.152c-.137-.2,0-.608.623-.988a4.559,4.559,0,0,1,4.924.152C88.335,201.864,88.5,202.274,88.365,202.472Z" transform="translate(-2.851 -173.179)" fill="#263238"></path><path id="Path_8836" data-name="Path 8836" d="M105.2,197.668a11.869,11.869,0,0,0-1.824-5.106,5.061,5.061,0,0,0-.623-5.258,5.182,5.182,0,0,0-7.082-.38h-.091a2.766,2.766,0,0,0-.851-3.328,6.368,6.368,0,0,0-4.134-.973c-2.705,0-9.118,2.173-13.936,4l-.927.167a25.623,25.623,0,0,0-11.14,4.8,23.89,23.89,0,0,0-6.96,12.325c-1.246,4.65-1.277,9.544-.319,17.462,1.52-1.292,6.611-4.559,7.371-2.751a10.639,10.639,0,0,1,.4,3.283,2.827,2.827,0,0,0,1.672,2.644,2.219,2.219,0,0,0,2.31-1.018,5.106,5.106,0,0,0,.745-2.553c.289-3.647-.623-7.34,0-10.957A13.449,13.449,0,0,1,85.729,198.96c2.188.441,4.316,1.429,6.535,1.337,3.207-.122,6.489-2.432,9.392-1.049.562.274,1.14.547,1.687.866,1.094.638,1.641,1.277,1.9.7a10.471,10.471,0,0,0-.046-3.146Z" transform="translate(-16.156 -182.585)" fill="#263238"></path><path id="Path_8837" data-name="Path 8837" d="M64.011,205.173c-.228,0-7.6-1.018-6.884,7.492s9.24,5,9.225,4.757S64.011,205.173,64.011,205.173Z" transform="translate(-15.927 -170.866)" fill="#b78876"></path><path id="Path_8838" data-name="Path 8838" d="M62.683,213.649a2.372,2.372,0,0,1-.38.258,1.52,1.52,0,0,1-1.14.106,3.678,3.678,0,0,1-1.93-3.146,4.757,4.757,0,0,1,.243-2.158,1.763,1.763,0,0,1,1.049-1.231.79.79,0,0,1,.927.334c.137.228.091.41.137.426s.182-.167.076-.517a1,1,0,0,0-.38-.5,1.14,1.14,0,0,0-.851-.152,2.128,2.128,0,0,0-1.52,1.444,5.03,5.03,0,0,0-.334,2.416,3.89,3.89,0,0,0,2.508,3.5,1.641,1.641,0,0,0,1.368-.334C62.683,213.862,62.714,213.664,62.683,213.649Z" transform="translate(-15.161 -169.874)" fill="#aa6550"></path><path id="Path_8839" data-name="Path 8839" d="M124.882,450.308l6.626-9.285-25.5-17.933L95.46,437.421l1.52,1.246c6.55,5.532,33.662,27.644,39.254,29.741C142.4,470.733,124.882,450.308,124.882,450.308Z" transform="translate(4.021 -57.589)" fill="#2274e5"></path><g id="Group_1454" data-name="Group 1454" transform="translate(99.846 372.628)" opacity="0.5"><path id="Path_8840" data-name="Path 8840" d="M104.438,441.564a10.638,10.638,0,0,0,1.033-7.6,9.225,9.225,0,0,0-4.757-6.185L95.7,434.649Z" transform="translate(-95.7 -427.78)" fill="#fff"></path></g><g id="Group_1455" data-name="Group 1455" transform="translate(99.481 379.315)" opacity="0.5"><path id="Path_8841" data-name="Path 8841" d="M133.18,455.888s5.79,7.6,3.982,8.131S107.1,443.183,95.46,432.7l.441-.517,32.735,25.167S131.69,454.854,133.18,455.888Z" transform="translate(-95.46 -432.18)" fill="#fff"></path></g><path id="Path_8842" data-name="Path 8842" d="M95.5,432l.4.365,1.17.988,4.346,3.586c3.693,3.039,8.86,7.1,14.65,11.474s11.124,8.252,15.015,10.988l4.559,3.222,1.277.851a2.078,2.078,0,0,0,.456.274s-.137-.122-.41-.334l-1.231-.912-4.559-3.313c-3.845-2.8-9.118-6.672-14.939-11.064s-10.851-8.526-14.65-11.413l-4.422-3.5-1.216-.942A1.808,1.808,0,0,0,95.5,432Z" transform="translate(4.042 -52.959)" fill="#263238"></path><path id="Path_8843" data-name="Path 8843" d="M117.1,449.764a11.457,11.457,0,0,1,2.416-1.52,11.64,11.64,0,0,1,2.811-.517,4.118,4.118,0,0,0-2.948.167,3.936,3.936,0,0,0-2.28,1.869Z" transform="translate(15.268 -44.887)" fill="#263238"></path><path id="Path_8844" data-name="Path 8844" d="M114.1,443.36c0,.106.7,0,1.52-.334s1.383-.593,1.353-.684a2.78,2.78,0,0,0-1.52.334C114.633,443.01,114.055,443.223,114.1,443.36Z" transform="translate(13.708 -47.601)" fill="#263238"></path><path id="Path_8845" data-name="Path 8845" d="M113.3,441.393c0,.106.593.152,1.292.091a2.523,2.523,0,0,0,1.277-.274c0-.106-.593-.152-1.307-.091S113.285,441.3,113.3,441.393Z" transform="translate(13.293 -48.233)" fill="#263238"></path><path id="Path_8846" data-name="Path 8846" d="M113.6,439.163a6.976,6.976,0,0,0,1.17,1.14c.714.547,1.337.927,1.4.836s-.471-.578-1.17-1.125A3.8,3.8,0,0,0,113.6,439.163Z" transform="translate(13.449 -49.241)" fill="#263238"></path><path id="Path_8847" data-name="Path 8847" d="M114.124,437.881a3.481,3.481,0,0,0,1.125,1.52,3.13,3.13,0,0,0,1.641.927,16.588,16.588,0,0,0-1.4-1.2C114.747,438.474,114.2,437.82,114.124,437.881Z" transform="translate(13.715 -49.904)" fill="#263238"></path><path id="Path_8848" data-name="Path 8848" d="M115.752,442.193a5.9,5.9,0,0,0,1.52,1.185,10.987,10.987,0,0,0,1.976.912,5.626,5.626,0,0,0,1.261.349,1.109,1.109,0,0,0,.76-.182.775.775,0,0,0,.228-.805,3.678,3.678,0,0,0-5.547-1.246c-.258.213-.365.365-.35.4a5.488,5.488,0,0,1,1.732-.79,3.6,3.6,0,0,1,2.006.167,3.04,3.04,0,0,1,1.793,1.52c.122.38-.2.593-.608.547a5.306,5.306,0,0,1-1.17-.3,13.68,13.68,0,0,1-1.96-.821C116.391,442.6,115.783,442.193,115.752,442.193Z" transform="translate(14.488 -47.955)" fill="#263238"></path><path id="Path_8849" data-name="Path 8849" d="M116.144,443.732a2.118,2.118,0,0,0,1-.942,2.9,2.9,0,0,0,.426-1.52,1.991,1.991,0,0,0-.714-1.793.775.775,0,0,0-1.033.349,2.066,2.066,0,0,0-.258.9,6.078,6.078,0,0,0,0,1.52,2.69,2.69,0,0,0,.441,1.322,11.563,11.563,0,0,1-.167-1.337,7.824,7.824,0,0,1,0-1.52c0-.486.334-1.2.79-.957s.532.957.547,1.52a3.48,3.48,0,0,1-.319,1.353A6.472,6.472,0,0,1,116.144,443.732Z" transform="translate(14.446 -49.114)" fill="#263238"></path><path id="Path_8850" data-name="Path 8850" d="M99.13,427.872a12.213,12.213,0,0,1,1.778,1.444,10.243,10.243,0,0,1,2.781,4.559,9.833,9.833,0,0,1-.122,5.334c-.41,1.322-.9,2.052-.836,2.082a1.824,1.824,0,0,0,.365-.486,7.2,7.2,0,0,0,.714-1.52,9.118,9.118,0,0,0,.228-5.5,9.635,9.635,0,0,0-2.948-4.726,8.782,8.782,0,0,0-1.383-.988C99.358,427.933,99.145,427.842,99.13,427.872Z" transform="translate(5.928 -55.107)" fill="#263238"></path><path id="Path_8851" data-name="Path 8851" d="M104.68,436.841a16.9,16.9,0,0,0,3.343,3.039,17.732,17.732,0,0,0,3.83,2.447c0-.091-1.626-1.216-3.6-2.736S104.756,436.765,104.68,436.841Z" transform="translate(8.813 -50.444)" fill="#263238"></path><path id="Path_8852" data-name="Path 8852" d="M101.635,434.43c-.106,0-.122.425-.228.912s-.258.881-.167.942.41-.289.532-.851S101.741,434.415,101.635,434.43Z" transform="translate(7.01 -51.696)" fill="#263238"></path><path id="Path_8853" data-name="Path 8853" d="M101.437,432.05c-.106,0-.137.4-.076.836s.2.805.3.79.137-.38,0-.836S101.528,432.05,101.437,432.05Z" transform="translate(7.072 -52.933)" fill="#263238"></path><path id="Path_8854" data-name="Path 8854" d="M100.18,430.092c0,.106.289.35.562.745s.38.79.486.79.152-.5-.182-.988S100.21,429.971,100.18,430.092Z" transform="translate(6.474 -53.969)" fill="#263238"></path><path id="Path_8855" data-name="Path 8855" d="M99.213,428.843c-.091,0,0,.289.106.517s.334.38.426.334,0-.289-.106-.517S99.3,428.8,99.213,428.843Z" transform="translate(5.952 -54.604)" fill="#263238"></path><g id="Group_1456" data-name="Group 1456" transform="translate(105.788 369.178)" opacity="0.3"><path id="Path_8856" data-name="Path 8856" d="M99.61,427.577l25.774,17.766.76-.988-25.06-18.845Z" transform="translate(-99.61 -425.51)"></path></g><path id="Path_8857" data-name="Path 8857" d="M207.211,464.021l-2.386-10.881-29.635,6.778,3.465,17.021,1.869-.228c8.282-1.125,42.066-6.292,47.233-8.966C233.532,464.751,207.211,464.021,207.211,464.021Z" transform="translate(45.459 -41.972)" fill="#2274e5"></path><g id="Group_1457" data-name="Group 1457" transform="translate(222.427 425.814)" opacity="0.5"><path id="Path_8858" data-name="Path 8858" d="M188.791,469.635a10.5,10.5,0,0,0-4.833-5.7,8.9,8.9,0,0,0-7.6-.562l1.687,8.131Z" transform="translate(-176.36 -462.777)" fill="#fff"></path></g><g id="Group_1458" data-name="Group 1458" transform="translate(224.038 422.84)" opacity="0.5"><path id="Path_8859" data-name="Path 8859" d="M219,460.82s9.331.805,8.5,2.447-34.771,8.115-50,9.681l-.076-.654,39.665-7.219S217.282,461.215,219,460.82Z" transform="translate(-177.42 -460.82)" fill="#fff"></path></g><path id="Path_8860" data-name="Path 8860" d="M177.11,471.653h.532l1.52-.2,5.456-.805c4.559-.714,10.927-1.778,17.9-3.039s13.252-2.659,17.781-3.678l5.365-1.246,1.52-.365.5-.152a2.476,2.476,0,0,0-.517.076l-1.52.3-5.38,1.14c-4.559.957-10.836,2.249-17.811,3.571s-13.282,2.432-17.872,3.207l-5.425.912-1.52.258Z" transform="translate(46.456 -37.279)" fill="#263238"></path><path id="Path_8861" data-name="Path 8861" d="M203.624,465.666a11.309,11.309,0,0,1,.532-2.72,13.436,13.436,0,0,1,1.52-2.386,4.179,4.179,0,0,0-1.793,2.249A3.921,3.921,0,0,0,203.624,465.666Z" transform="translate(60.154 -38.115)" fill="#263238"></path><path id="Path_8862" data-name="Path 8862" d="M197.25,463.08a3.5,3.5,0,0,0,.729-1.307,3.039,3.039,0,0,0,.38-1.413,3.358,3.358,0,0,0-.729,1.292A3.04,3.04,0,0,0,197.25,463.08Z" transform="translate(56.924 -38.219)" fill="#263238"></path><path id="Path_8863" data-name="Path 8863" d="M195.514,462.313a3.1,3.1,0,0,0,.912-.881c.426-.547.714-1.049.638-1.109s-.5.334-.927.881S195.438,462.252,195.514,462.313Z" transform="translate(56.015 -38.242)" fill="#263238"></path><path id="Path_8864" data-name="Path 8864" d="M194.16,460.2a3.586,3.586,0,0,0,1.6-.106,3.5,3.5,0,0,0,1.52-.456,3.815,3.815,0,0,0-1.52.106,3.772,3.772,0,0,0-1.6.456Z" transform="translate(55.318 -38.61)" fill="#263238"></path><path id="Path_8865" data-name="Path 8865" d="M193.58,458.94a4.459,4.459,0,0,0,3.556-.41,10.635,10.635,0,0,0-1.778.213,9.913,9.913,0,0,0-1.778.2Z" transform="translate(55.016 -39.171)" fill="#263238"></path><path id="Path_8866" data-name="Path 8866" d="M197.6,461.509a6.08,6.08,0,0,0,1.9-.38,12.279,12.279,0,0,0,1.945-.821,6.179,6.179,0,0,0,1.079-.7.973.973,0,0,0,.365-.669.76.76,0,0,0-.426-.7,3.617,3.617,0,0,0-4.149,1.839,3.222,3.222,0,0,0-.38,1.368c0,.334,0,.517,0,.517a4.909,4.909,0,0,1,.562-1.763,3.435,3.435,0,0,1,1.429-1.353,3.131,3.131,0,0,1,2.31-.289c.35.167.289.532,0,.805a6.946,6.946,0,0,1-.988.653,12.445,12.445,0,0,1-1.884.866C198.314,461.312,197.585,461.449,197.6,461.509Z" transform="translate(57.105 -39.384)" fill="#263238"></path><path id="Path_8867" data-name="Path 8867" d="M198.964,461.475a1.793,1.793,0,0,0,0-1.337,3.04,3.04,0,0,0-.775-1.277,1.976,1.976,0,0,0-1.778-.653.775.775,0,0,0-.426.973,2.052,2.052,0,0,0,.486.775,5.685,5.685,0,0,0,1.125.973,2.918,2.918,0,0,0,1.231.547,12.473,12.473,0,0,0-1.079-.76,6.6,6.6,0,0,1-1.018-.973c-.334-.349-.653-1.018-.182-1.2s1.049.243,1.413.562a3.041,3.041,0,0,1,.76,1.109,5.394,5.394,0,0,1,.243,1.261Z" transform="translate(56.243 -39.349)" fill="#263238"></path><path id="Path_8868" data-name="Path 8868" d="M176.51,463.321c0,.076.836-.243,2.219-.334a9.924,9.924,0,0,1,5.152,1.018,9.513,9.513,0,0,1,3.784,3.571c.7,1.17.9,1.991.973,1.976a2.172,2.172,0,0,0-.122-.593,6.594,6.594,0,0,0-.623-1.52,9.161,9.161,0,0,0-10.82-4.377A2.95,2.95,0,0,0,176.51,463.321Z" transform="translate(46.145 -37.032)" fill="#263238"></path><path id="Path_8869" data-name="Path 8869" d="M186.64,465.525a25.562,25.562,0,0,0,8.708-1.52c0-.106-1.945.38-4.346.821S186.64,465.358,186.64,465.525Z" transform="translate(51.409 -36.333)" fill="#263238"></path><path id="Path_8870" data-name="Path 8870" d="M182.81,465.686a3.606,3.606,0,0,0,.517.775c.289.4.456.76.562.745s0-.5-.258-.957S182.856,465.61,182.81,465.686Z" transform="translate(49.419 -35.46)" fill="#263238"></path><path id="Path_8871" data-name="Path 8871" d="M181,464.21c0,.076.182.334.547.593s.714.38.775.289-.2-.35-.562-.593S181.091,464.119,181,464.21Z" transform="translate(48.478 -36.233)" fill="#263238"></path><path id="Path_8872" data-name="Path 8872" d="M178.812,463.872c0,.106.426,0,.9.091s.821.228.881.152-.258-.441-.836-.5S178.751,463.8,178.812,463.872Z" transform="translate(47.338 -36.534)" fill="#263238"></path><path id="Path_8873" data-name="Path 8873" d="M177.26,463.735c0,.091.182.213.441.258s.5,0,.517-.091-.182-.213-.441-.274S177.275,463.628,177.26,463.735Z" transform="translate(46.534 -36.533)" fill="#263238"></path><g id="Group_1459" data-name="Group 1459" transform="translate(221.515 416.548)" opacity="0.3"><path id="Path_8874" data-name="Path 8874" d="M176.292,464.9l29.741-7.021-.228-1.2-30.045,5.805Z" transform="translate(-175.76 -456.68)"></path></g><path id="Path_8875" data-name="Path 8875" d="M145.5,290.6a28.874,28.874,0,0,1,5.927-5.653c.836-.274,15.714-6.474,15.987-5.79s2.067,4.088-.973,5.7l-2.34.775,8.541.7s9.513,7.021,9.377,8.541-1.383,2.477-2.2,1.778,2.2,4.833,2.2,4.833,0,2.34-1.246,1.93a11.628,11.628,0,0,1-3.176-2.629s1.793,2.9,1.246,3.45-3.3.684-3.587,0-.684-1.93-.684-1.93l-1.657.137v2.34l-25.212.775Z" transform="translate(30.028 -132.421)" fill="#aa6550"></path><path id="Path_8876" data-name="Path 8876" d="M83.918,240.89l7.7,9.1,30.79,53.889,60.044,5.942,1.307,17.37L114.6,333.73,76,263.853Z" transform="translate(-6.093 -152.283)" fill="#e0e0e0"></path><path id="Path_8877" data-name="Path 8877" d="M107.823,273.569l-5.957-22.477-.122-7.325L68.31,228.57l-6.4,8.009.775.41c-2.644,2.766-22.051,23.784-20.942,39.346,1.049,13.981,30.486,102.034,30.486,102.034l67.065-19.6Z" transform="translate(-23.919 -158.686)" fill="#ebebeb"></path><path id="Path_8878" data-name="Path 8878" d="M81.454,243.59,79.57,252.8l4.909,9.21v6.824L119.615,350.9l10.395,3.5,1.763-7.036S102.518,297.4,97.457,283.346s-12.538-34.315-12.538-34.315Z" transform="translate(-4.237 -150.88)" fill="#2274e5"></path><path id="Path_8879" data-name="Path 8879" d="M45.71,280.843c0,.881,60.576,59.406,60.576,59.406l81.837-16.018-2.629-17.462-55.865,1.52a16.428,16.428,0,0,1-14.7-6.626C102.943,286.1,76.94,252.349,76.287,251.513,75.421,250.267,45.71,280.843,45.71,280.843Z" transform="translate(-21.835 -146.781)" fill="#ebebeb"></path><path id="Path_8880" data-name="Path 8880" d="M185.195,307.85s.076.35.2,1.094.319,1.869.547,3.313l2.052,13.039v.152h-.152l-65.348,12.629-5.38,1.033a24.727,24.727,0,0,1-5.638.5,22.72,22.72,0,0,1-15.82-7.158c-1.383-1.52-2.66-3.04-4.012-4.559q-4.042-4.559-8.176-9.392c-11.079-12.735-22.8-26.246-34.954-40.227h0l-.243-.638a26.535,26.535,0,0,1-1.976-9.422,17.431,17.431,0,0,1,2.34-9.225,19.453,19.453,0,0,1,6.732-6.52,20.882,20.882,0,0,1,8.723-2.994,16.717,16.717,0,0,1,8.921,1.6,23.114,23.114,0,0,1,6.96,5.517,74.363,74.363,0,0,1,5.273,6.869l4.878,6.839c6.52,8.966,12.963,17.294,19.194,24.939l4.559,5.593a51.127,51.127,0,0,0,4.65,5.152,10.881,10.881,0,0,0,5.973,2.447,47.59,47.59,0,0,0,6.4.167l39.786-.608,10.775-.137h2.735l-2.842.091-10.82.274-39.634.9a46.282,46.282,0,0,1-6.459-.152,11.55,11.55,0,0,1-6.307-2.553,50.033,50.033,0,0,1-4.742-5.213l-4.559-5.593c-6.261-7.6-12.735-15.957-19.27-24.923-1.626-2.249-3.252-4.559-4.909-6.839a74.472,74.472,0,0,0-5.228-6.778,22.355,22.355,0,0,0-6.778-5.228,15.866,15.866,0,0,0-8.51-1.52,19.969,19.969,0,0,0-14.878,9.118,16.489,16.489,0,0,0-2.234,8.8,25.835,25.835,0,0,0,1.915,9.118c.091.213.167.426.243.623v-.106l34.954,40.242,8.161,9.422c1.353,1.52,2.66,3.039,4,4.559a21.945,21.945,0,0,0,15.319,6.96,23.7,23.7,0,0,0,5.486-.471l5.38-1.018,65.348-12.295-.137.182c-.805-5.653-1.429-10-1.854-12.963l-.456-3.374C185.241,308.245,185.195,307.85,185.195,307.85Z" transform="translate(-21.536 -147.861)" fill="#455a64"></path><path id="Path_8881" data-name="Path 8881" d="M94.614,240.82c.076,0-.228,1.52-.532,4.118a87.24,87.24,0,0,1-1.52,10.836l-.091.456-.41-.243-11.884-6.915c-6.884-4.012-13.1-7.6-17.583-10.349L57.3,235.517a12.888,12.888,0,0,1-1.884-1.277,12.843,12.843,0,0,1,2.036,1l5.41,3.039c4.559,2.568,10.82,6.079,17.7,10.137l11.915,6.975-.517.213c.988-4.346,1.246-8.13,1.717-10.729.213-1.307.41-2.325.593-3.039a4.558,4.558,0,0,1,.334-1.018Z" transform="translate(-16.789 -155.739)" fill="#455a64"></path><path id="Path_8882" data-name="Path 8882" d="M172.671,289.247l-14.6-4-12.158,6.079h-6.884l-1.094.441,1.96,13.085,1.732.243a16.717,16.717,0,0,0,5.805,2.2c3.86.836,9.5-1.656,9.5-1.656l7.72-4.27,5.517-1.52,4.134,2.4a16.2,16.2,0,0,1,.41,2.2c0,.547,1.52,1.231,2.34,1.231s1.094-1.93,1.094-1.93l-.957-4.118,1.93,1.778h4.818V298.38Z" transform="translate(26.094 -129.228)" fill="#b78876"></path><path id="Path_8883" data-name="Path 8883" d="M160.942,350.99,98.01,463.024l33.631,22.811,55.622-98.721-9.377-36.124Z" transform="translate(5.346 -95.061)" fill="#263238"></path><path id="Path_8884" data-name="Path 8884" d="M62.234,333.789s-7.219,30.394,12.386,36.625S196.2,379.821,196.2,379.821l37.9,156.531,32.446-4.559L238.567,364.031a28.4,28.4,0,0,0-22.978-23.039c-30.242-5.41-85.028-15.334-85.773-16.443-1.033-1.52-5.167-10.319-5.167-10.319Z" transform="translate(-13.922 -114.166)" fill="#263238"></path><path id="Path_8885" data-name="Path 8885" d="M175.062,406.178a3.966,3.966,0,0,1-.334-.805c-.2-.547-.456-1.337-.745-2.386-.608-2.067-1.353-5.121-2.143-8.89s-1.7-8.313-2.72-13.282a72.356,72.356,0,0,0-4.726-15.775c-1.277-2.553-3.039-5.03-5.577-5.851a42.123,42.123,0,0,0-7.72-1.687c-5.046-.7-9.62-1.033-13.465-1.277s-6.976-.35-9.118-.441l-2.477-.106a3.038,3.038,0,0,1-.866,0,3.042,3.042,0,0,1,.866-.076h2.492c2.158,0,5.289,0,9.118.182s8.45.441,13.526,1.109a42.077,42.077,0,0,1,7.9,1.687,9.88,9.88,0,0,1,1.96.988,9.649,9.649,0,0,1,1.641,1.52,16.933,16.933,0,0,1,2.416,3.739,70.881,70.881,0,0,1,4.726,15.972c1.018,5.015,1.808,9.529,2.553,13.313s1.383,6.839,1.884,8.936S175.062,406.148,175.062,406.178Z" transform="translate(19.462 -92.667)" fill="#455a64"></path></g><g id="Desk--inject-132" transform="translate(159.799 352.682)"><path id="Path_8886" data-name="Path 8886" d="M540.2,303.049,135.2,301.59l-.046,12.036,24.042.076-.851,234.22,8.5.03.836-234.22,334.658,1.2-.836,234.235,8.5.015.836-234.22,29.331.106Z" transform="translate(-135.15 -234.722)" fill="#455a64"></path><path id="Path_8887" data-name="Path 8887" d="M310.14,258.83l22.477,65.652H434.332l-.745-3.374-41.139-1.277L373.5,258.8Z" transform="translate(-44.204 -256.961)" fill="#e0e0e0"></path><path id="Path_8888" data-name="Path 8888" d="M342.469,280.46c.669,2.69-.486,5.334-2.584,5.9s-4.331-1.17-5-3.86.471-5.334,2.568-5.881S341.785,277.77,342.469,280.46Z" transform="translate(-31.442 -247.755)" fill="#fff"></path><path id="Path_8889" data-name="Path 8889" d="M286.752,257.62l-22.477,65.652H162.56l.745-3.374,41.139-1.277,18.951-61.032Z" transform="translate(-120.904 -257.59)" fill="#e0e0e0"></path><path id="Path_8890" data-name="Path 8890" d="M214.675,279.256c-.669,2.69.486,5.334,2.584,5.881s4.331-1.155,5-3.845-.486-5.334-2.568-5.9S215.359,276.566,214.675,279.256Z" transform="translate(-93.918 -248.391)" fill="#fff"></path><ellipse id="Ellipse_759" data-name="Ellipse 759" cx="12.447" cy="12.447" rx="12.447" ry="12.447" transform="translate(192.82 52.985) rotate(-80.76)" fill="#455a64"></ellipse><rect id="Rectangle_1141" data-name="Rectangle 1141" width="81.336" height="29.726" transform="translate(166.455 37.795)" fill="#e0e0e0"></rect><path id="Path_8891" data-name="Path 8891" d="M274.324,288.013a113.153,113.153,0,0,1-13.267.4,113.155,113.155,0,0,1-13.267-.4,109.312,109.312,0,0,1,13.267-.4A109.312,109.312,0,0,1,274.324,288.013Z" transform="translate(-76.608 -242.011)" fill="#263238"></path><path id="Path_8892" data-name="Path 8892" d="M274.324,290.828a113.153,113.153,0,0,1-13.267.4,113.155,113.155,0,0,1-13.267-.4,107.316,107.316,0,0,1,13.267-.41,107.315,107.315,0,0,1,13.267.41Z" transform="translate(-76.608 -240.556)" fill="#263238"></path><path id="Path_8893" data-name="Path 8893" d="M274.324,293.621a109.318,109.318,0,0,1-13.267.4,109.307,109.307,0,0,1-13.267-.4,113.168,113.168,0,0,1,13.267-.4,113.161,113.161,0,0,1,13.267.4Z" transform="translate(-76.608 -239.094)" fill="#263238"></path><path id="Path_8894" data-name="Path 8894" d="M274.324,296.431a109.287,109.287,0,0,1-13.267.4,109.288,109.288,0,0,1-13.267-.4,113.174,113.174,0,0,1,13.267-.4,113.161,113.161,0,0,1,13.267.4Z" transform="translate(-76.608 -237.633)" fill="#263238"></path><path id="Path_8895" data-name="Path 8895" d="M275.153,311.326a126.258,126.258,0,0,1-.4-14.27,126.668,126.668,0,0,1,.4-14.285,131.143,131.143,0,0,1,.4,14.285A130.68,130.68,0,0,1,275.153,311.326Z" transform="translate(-62.62 -244.503)" fill="#263238"></path></g></svg>